<?xml version="1.0" encoding="utf-8"?>
<!-- Generator: Adobe Illustrator 24.0.1, SVG Export Plug-In . SVG Version: 6.00 Build 0)  -->
<svg version="1.1" id="Layer_1" xmlns="http://www.w3.org/2000/svg" xmlns:xlink="http://www.w3.org/1999/xlink" x="0px" y="0px"
	 viewBox="0 0 500 500" style="enable-background:new 0 0 500 500;" xml:space="preserve">
<path d="M117.3556519,391.7875977c-0.7362061,1.03302-2.0946655,1.3596191-3.2023315,0.835083
	c-8.3991089-3.9689331-15.932312-9.7153931-22.50177-16.3305664c-2.6166382,0.8887329-5.2198486,1.8169556-7.8074951,2.788147
	l-3.7523804,1.4368896l-3.7142944,1.5316772c-2.4775391,1.0182495-4.9346924,2.0922852-7.364502,3.2189941
	c-2.4487915,1.0929565-4.845459,2.2875366-7.2460938,3.4754028c-2.3610229,1.2123413-4.7974854,2.4737549-7.0050659,3.7438354
	l-0.098877,0.0568848c-1.2321167,0.7088623-2.805542,0.284729-3.5144653-0.9473267
	c-0.6450195-1.1211548-0.3512573-2.5249634,0.6350098-3.3027954c2.303833-1.8208618,4.5649414-3.3668213,6.9417114-4.8812256
	c2.3610229-1.4985352,4.7716675-2.9141235,7.2246704-4.2437134c4.90802-2.6583862,9.9569702-5.0533447,15.1316528-7.1418457
	c1.6575317-0.6473389,3.322998-1.2781372,4.9936523-1.8952637c-4.439209-5.3394775-8.3358154-11.1244507-11.6975098-17.1876831
	c-1.9372559-3.5093384-3.6940918-7.1109619-5.2924194-10.7799683c-1.7784424,0.3869629-3.5498657,0.8086548-5.3299561,1.2040405
	c-2.1289063,0.546814-4.2672119,1.0664673-6.3931274,1.6435547c-4.2351074,1.1311035-8.5336304,2.4163818-12.6296997,3.7161255
	l-0.119812,0.0380249c-1.3574829,0.4307861-2.8071289-0.3204956-3.237915-1.6779785
	c-0.3742676-1.1795044,0.1452637-2.428772,1.1779785-3.0186157c4.1403198-2.3672485,8.3358154-4.145813,12.6901245-5.743103
	c3.5892334-1.3084106,7.2523193-2.4168701,10.9666138-3.3305664c-3.9807739-10.8190308-6.5698853-22.1459351-7.7927246-33.6057739
	c-0.0648804,0.0001221-0.1296387-0.0016479-0.194519-0.0014038c-1.4484253-0.0126953-2.8972168-0.0044556-4.3467407,0.0246582
	c-1.4495239,0.0131836-2.8998413-0.0059814-4.3498535,0.0334473l-8.7058716,0.192749
	c-5.7941895,0.1603394-11.6461792,0.420166-17.3911743,0.6875l-0.0693359,0.0031738
	c-1.4216919,0.0661621-2.6278076-1.0327148-2.6939697-2.4543457c-0.0596313-1.2814331,0.828064-2.3875122,2.0447388-2.6417236
	c5.8998413-1.2386475,11.7518921-2.0014648,17.6752319-2.5784302l4.4387817-0.3759766
	c1.480896-0.1130981,2.9645386-0.1775513,4.4472656-0.2684937c2.8432617-0.1401978,5.6889648-0.2644653,8.5388184-0.270813
	c-0.9112549-17.3153687,1.3128662-34.8398438,6.8974609-51.2444458
	c6.1123047-17.9606934,16.2228394-34.4888306,29.3823853-47.6717529c1.0070801-1.0088501,2.6413574-1.0103149,3.6502686-0.0032349
	c0.8886719,0.887085,0.9957275,2.2606812,0.3204346,3.2649536l-0.0290527,0.0423584
	c-5.008606,7.4597168-9.5697021,15.0859375-13.3049316,23.0761719c-0.9455566,1.9900513-1.932373,3.953064-2.7147827,6.0129395
	l-1.24646,3.0484009l-0.6230469,1.5209351l-0.5355835,1.5570068c-0.7067261,2.0764771-1.5195923,4.1079102-2.1519165,6.2028809
	l-1.8713989,6.2817383c-4.2337646,15.6902466-5.8462524,31.9955444-4.9090576,48.1655273
	c1.7854614,0.102478,3.5701904,0.2230225,5.3527832,0.3781128l4.4483032,0.4649048
	c1.4816284,0.1779785,2.9567261,0.4292603,4.4326172,0.6424561c2.9519043,0.4106445,5.8815308,1.0858765,8.7872925,1.7563477
	c1.3881226,0.3203125,2.2537231,1.7052002,1.9334717,3.0933228c-0.2802124,1.2142334-1.375,2.0286865-2.5740356,1.9992676
	l-0.1003418-0.0029297c-5.8277588-0.1397095-11.5794678-0.5388184-17.3721924-0.6348267
	c-1.4212646-0.0745239-2.84729-0.0959473-4.2731934-0.1156616c1.1524048,10.5809326,3.399353,21.0585327,6.7842407,31.1524048
	c1.3827515-0.1740723,2.7683105-0.3280029,4.15802-0.4424438c4.6165161-0.3944702,9.2869263-0.3398438,13.8991699,0.161377
	c1.4209595,0.1544189,2.4476318,1.4314575,2.2932739,2.852417c-0.1282959,1.1804199-1.0313721,2.0887451-2.1480103,2.2739258
	l-0.105957,0.0168457c-4.3961792,0.7267456-8.744873,1.1744385-13.0703125,1.9591064
	c-0.7979736,0.1000366-1.5914917,0.234314-2.3840942,0.3754272c1.0675659,2.6873169,2.2112427,5.3446045,3.4476929,7.9598389
	c3.1778564,6.7059937,6.8925781,13.1837158,11.2982178,19.1588745c0.479248-0.1343384,0.9533081-0.2857666,1.4350586-0.4118042
	c5.3798828-1.4746704,10.9031372-2.4376221,16.477478-2.8370361c1.427124-0.1022949,2.6668701,0.9716797,2.769165,2.3988037
	c0.0830688,1.1595459-0.6104126,2.1954346-1.638855,2.5979004l-0.121582,0.0466919
	c-2.5488892,0.9945068-5.133606,1.7427979-7.6878052,2.5952759l-3.8361206,1.2354126
	c-0.7796021,0.2205811-1.550354,0.4714355-2.319397,0.7276611c4.7589722,5.5095825,10.1461182,10.4854736,16.1479492,14.7628784
	l0.0450439,0.0321045C117.9122314,389.0170288,118.182373,390.6275635,117.3556519,391.7875977z M478.1455078,293.1240845
	c-5.8999023-1.2386475-11.7519531-2.0014648-17.675293-2.5784302l-4.4387207-0.3759766
	c-1.480896-0.1130981-2.9645996-0.1775513-4.4473267-0.2684937c-2.9672852-0.1462402-5.9369507-0.2825928-8.9115601-0.27771
	c-5.9456787-0.1129761-11.9054565,0.1217651-17.8443604,0.6384888l-4.4482422,0.4649048
	c-1.4816284,0.1779785-2.9567871,0.4292603-4.4326782,0.6424561c-2.9518433,0.4106445-5.8815308,1.0858765-8.7872925,1.7563477
	c-1.1687622,0.2689819-2.0286255,1.3294067-1.9987183,2.5751953c0.0341187,1.4241943,1.2163086,2.5510254,2.6405029,2.5168457
	l0.0991211-0.0023804c5.8277588-0.1397095,11.5794678-0.5388184,17.3721924-0.6348267
	c1.4423218-0.0756226,2.8895874-0.0967407,4.3364868-0.1167603l4.3375244-0.1043091
	c2.8949585-0.0157471,5.7878418-0.0905762,8.6860962-0.0808105c1.4484253-0.0126953,2.8972168-0.0044556,4.3467407,0.0246582
	c1.4495239,0.0131836,2.8998413-0.0059814,4.3498535,0.0334473l8.7058716,0.192749
	c5.7941895,0.1603394,11.6461792,0.420166,17.3911743,0.6875l0.0700684,0.0036011
	c1.2415161,0.05896,2.3774414-0.7896118,2.6410522-2.045105
	C480.4304199,294.7826538,479.5383301,293.4165039,478.1455078,293.1240845z M463.4460449,339.9594727
	c-4.1565552-2.329895-8.3546143-4.0908813-12.704834-5.6965942c-4.3411865-1.5695801-8.7772217-2.8800659-13.2852173-3.914856
	c-2.2471313-0.5441895-4.5286865-0.9484253-6.8010254-1.3874512c-2.2977295-0.3068237-4.5782471-0.7198486-6.9002686-0.8468018
	c-4.614563-0.4268799-9.2935791-0.3536377-13.9064941,0.2224121c-1.0927124,0.1376953-2.0215454,0.9668579-2.2296753,2.1078491
	c-0.256897,1.4089355,0.6768799,2.7593384,2.0858154,3.0162354l0.1046143,0.019104
	c4.3955078,0.8016357,8.7355957,1.2678833,13.0630493,2.0200806c4.3247681,0.6850586,8.6520996,1.3782959,12.9470825,2.293396
	c4.3011475,0.8760986,8.5836792,1.8973999,12.8322754,3.0626221c4.2391968,1.1226196,8.5351563,2.4254761,12.6149902,3.7625732
	l0.1179199,0.0391846c1.1469727,0.37677,2.4371948-0.0968628,3.0497437-1.1896362
	C465.1299438,342.2260132,464.6876221,340.6553955,463.4460449,339.9594727z M454.215332,384.184021
	c-4.5181274-3.6032104-9.227356-6.4692993-14.1381836-9.1811523c-4.9122314-2.6526489-9.960144-5.0587158-15.1486206-7.1143188
	c-1.2856445-0.5437622-2.6062012-0.9951172-3.90802-1.4968872c-1.3052368-0.4927979-2.6083374-0.993103-3.944397-1.3974609
	l-3.9821777-1.2854614c-1.3377686-0.3948364-2.6932373-0.7306519-4.0379028-1.0980835
	c-5.3917236-1.4245605-10.8984375-2.4189453-16.4511719-2.9268799c-1.1403809-0.1040649-2.2545166,0.5634766-2.6645508,1.6902466
	c-0.4880981,1.3415527,0.2036743,2.8247681,1.5452271,3.3129272l0.1106567,0.0402832
	c2.5614624,0.9320068,5.152771,1.6590576,7.713501,2.4907837c2.5528564,0.8620605,5.1312866,1.5947266,7.6651611,2.480957
	c5.1005249,1.6520386,10.1547852,3.418396,15.1685791,5.3001709c5.0072632,1.9006958,9.9418945,3.9884033,14.8141479,6.2150879
	c4.8500977,2.2079468,9.737854,4.6362915,14.2793579,7.1630249l0.1228027,0.0687866
	c1.0795288,0.6018677,2.46698,0.3530884,3.2630615-0.6450806
	C455.5090332,386.6896362,455.3265991,385.0703125,454.215332,384.184021z M160.7201538,129.9624023
	c0.4842529,0.2162476,1.0784912,0.1255493,1.4714355-0.2753906c0.5048218-0.5150146,0.49646-1.3417358-0.0185547-1.8465576
	c-1.2233887-1.1989746-2.4966431-2.3355103-3.755127-3.503418l-3.9261475-3.3157349
	c-1.3292847-1.0862427-2.7080688-2.1091919-4.0723877-3.1625977c-1.4006958-0.9989014-2.8036499-2.0093994-4.2351685-2.9813232
	c-5.7714844-3.8228149-11.9396973-7.2545776-18.7950439-9.6778564c-3.4025879-1.2642212-7.0370483-2.1339722-10.821167-2.6771851
	c-3.7865601-0.46875-7.7942505-0.5647583-11.8215942,0.1901855c-4.0170898,0.7177734-8.0462036,2.215332-11.5380859,4.4898682
	c-3.5117798,2.2456055-6.472229,5.1348267-8.8778687,8.2351074c-2.4319458,3.0944214-4.3296509,6.4135742-5.8882446,9.7720947
	c-0.7764893,1.6806641-1.4984131,3.3660278-2.119873,5.0692139c-0.6308594,1.7059326-1.1176147,3.5037842-1.6721802,5.2489014
	c-1.961731,7.0532837-2.7467041,14.1595459-2.9265747,21.1567383c-0.1549072,7.0041504,0.359375,13.9235229,1.3605957,20.7264404
	l0.3873901,2.5471802l0.4666748,2.5330811c0.2926636,1.6881714,0.6755981,3.3631592,1.057312,5.0322876
	c0.7807007,3.3427124,1.647583,6.6329956,2.7862549,9.9096069c0.1800537,0.5160522,0.6763916,0.883606,1.2525635,0.8720703
	c0.717041-0.0142822,1.2867432-0.6071777,1.2724609-1.3242798l-0.0007935-0.0391846
	c-0.0662842-3.3251953-0.0939941-6.6888428-0.0921631-10.0101929c0.0636597-3.3338623,0.0632935-6.644165,0.2158203-9.9434814
	c0.2393799-6.5927124,0.7264404-13.1237793,1.6099243-19.4998779c0.8764648-6.3688965,2.1807251-12.6001587,4.1537476-18.3845215
	c0.5543823-1.4203491,1.010376-2.8496094,1.624939-4.2584839c0.6096191-1.4179077,1.2372437-2.8067017,1.9207764-4.1460571
	c1.371582-2.6731567,2.9136963-5.1611328,4.6386719-7.3371582c1.7427979-2.1647949,3.6769409-3.9891968,5.7880859-5.4172974
	c2.1331787-1.3936768,4.4700317-2.3721924,7.0272827-2.9567871c2.5574951-0.5543213,5.3291626-0.7824707,8.2119141-0.5928955
	c2.8873901,0.1369629,5.862915,0.6116333,8.8743896,1.3172607c6.0181885,1.4038696,12.1033325,3.6279297,18.1646729,6.1078491
	C148.5141602,124.3217773,154.5355835,127.1848755,160.7201538,129.9624023z M154.2514038,296.442627
	c-7.479187,0-13.5422974,9.2966919-13.5422974,20.7648315c0,11.4680786,6.0631104,20.7648315,13.5422974,20.7648315
	s13.5422974-9.2967529,13.5422974-20.7648315C167.7937012,305.7393188,161.7305908,296.442627,154.2514038,296.442627z
	 M344.9922485,296.442627c-7.479187,0-13.5422363,9.2966919-13.5422363,20.7648315
	c0,11.4680786,6.0630493,20.7648315,13.5422363,20.7648315c7.479248,0,13.5422974-9.2967529,13.5422974-20.7648315
	C358.5345459,305.7393188,352.4714966,296.442627,344.9922485,296.442627z M252.0560303,338.1209106
	c-10.0020752,0-18.1103516,5.2880249-18.1103516,11.8110962c0,6.5231323,8.1082764,11.8110962,18.1103516,11.8110962
	s18.1103516-5.2879639,18.1103516-11.8110962C270.1663818,343.4089355,262.0581055,338.1209106,252.0560303,338.1209106z
	 M349.1426392,120.0262451l0.0390015-0.0062866c9.333374-1.5020752,18.4544067-3.1879883,27.4592896-4.303772
	c4.4926147-0.5952759,8.960083-0.9917603,13.3410645-1.2084351c2.1966553-0.1159668,4.3690186-0.1522217,6.4200439-0.0984497
	c2.0533447,0.0792847,3.9956055,0.2835083,5.7315063,0.6542358c1.7393188,0.3858032,3.2362671,0.9650269,4.5543213,1.6995239
	c0.3179932,0.2033691,0.6360474,0.4029541,0.9473267,0.6162109c0.2872314,0.2479248,0.6096802,0.4417725,0.887085,0.7125854
	c0.5843506,0.4971313,1.1560669,1.0411377,1.6776733,1.6935425c2.1279297,2.5466919,3.8633423,6.2299194,5.206543,10.2712402
	c1.3553467,4.046875,2.4550171,8.4223633,3.4642334,12.9025269c1.0311279,4.4837036,1.9487915,9.078186,3.1620483,13.7381592
	l0.0022583,0.0096436c0.1187134,0.4514771,0.4725342,0.8265991,0.9570313,0.949646
	c0.710144,0.1802979,1.4320679-0.2491455,1.6123657-0.9592896c1.1970215-4.7136841,1.8540649-9.4968262,2.1574707-14.3598633
	c0.2865601-4.8620605,0.1821899-9.8148193-0.6688232-14.883667c-0.8518677-5.0310669-2.3910522-10.3695068-5.9595337-15.3135986
	c-0.8789063-1.2259521-1.9217529-2.3964233-3.0609131-3.4838257c-0.5557251-0.5552979-1.2086182-1.0240479-1.8186035-1.5285645
	c-0.6384277-0.4702759-1.3024902-0.9147339-1.9705811-1.3411255c-2.7140503-1.6661987-5.6918335-2.6774902-8.5356445-3.2470093
	c-2.854248-0.5892944-5.6095581-0.7424927-8.2400513-0.7028809c-2.6358032,0.0296631-5.1516724,0.2335815-7.6176147,0.5877075
	c-4.9550781,0.6274414-9.760498,1.727356-14.4311523,3.1057739c-4.6654053,1.4089355-9.2001343,3.1148071-13.5941772,5.1037598
	c-4.387146,2.022522-8.644043,4.2409058-12.6751709,7.0133057c-0.4038086,0.2788086-0.6356201,0.7741089-0.5524292,1.2908936
	C347.7524414,119.6543579,348.4264526,120.1415405,349.1426392,120.0262451z M303.1943359,204.6990967l-0.1036377,0.0323486
	c-2.3243408,0.7251587-4.8513184,1.2991943-7.3181763,1.678772c-2.4718628,0.43396-4.9696655,0.6681519-7.4505615,0.7528076
	c-4.9620361,0.1607666-9.8778076-0.2219238-14.5880737-1.3009033l-3.4935303-0.9110107l-3.3985596-1.1650391
	c-1.9714966-0.7531128-3.671875-1.8156738-5.1994629-3.1954956c-3.0611572-2.7312622-5.2210693-6.6123047-6.666748-10.8536987
	c-2.7955322-8.6029663-2.7836914-18.4422607-1.0372314-27.7962646c0.8404541-4.7069092,2.1547241-9.3451538,3.8626099-13.8354492
	c1.6776123-4.5039063,3.7982788-8.8374023,6.2058716-12.9989624l1.9384155-3.0568237l0.9700317-1.5289307l0.4848022-0.7646484
	l0.5371704-0.7148438c1.4476929-1.8908081,2.7962646-3.8845825,4.3937988-5.602417l1.1544189-1.3384399l0.5761719-0.6709595
	l0.6254883-0.607666l2.4951782-2.4417725c1.7693481-1.4682007,3.4902344-3.0228271,5.406311-4.2442017
	c3.7614136-2.5578613,7.8651123-4.5014648,12.199646-5.6780396c2.1604614-0.6316528,4.3966675-0.9257202,6.640564-1.1896362
	c2.2523193-0.1585693,4.5291138-0.1751099,6.7886963,0.0426025c0.5482788,0.0732422,1.1529541,0.1203613,1.6608887,0.197876
	c0.4744873,0.0990601,0.9542847,0.147583,1.4362793,0.2681885l1.4539185,0.4058228l1.4507446,0.5505371
	c1.9154663,0.8521729,3.802002,1.9715576,5.5908203,3.340271c3.5596313,2.7752686,6.6646729,6.4819946,9.3460083,10.5562744
	c0.6393433,1.0446167,1.3569946,2.0429688,1.9440918,3.1348267l1.8063965,3.2633667
	c1.0764771,2.2572632,2.2319336,4.4967041,3.180603,6.8532715c2.0426025,4.6506958,3.6153564,9.5400391,5.2645874,14.4509277
	l0.0158691,0.0480957c0.1895142,0.5652466,0.7539063,0.9408569,1.3699341,0.8702393
	c0.7078247-0.0811768,1.2158813-0.7207642,1.1347046-1.4286499c-0.1496582-1.305481-0.3081055-2.6132202-0.4841309-3.9202271
	c-0.1800537-1.3064575-0.3112793-2.6256714-0.5719604-3.9230347c-0.4844971-2.6013794-0.9664917-5.2148438-1.6592407-7.7961426
	c-0.5717163-2.6126099-1.4629517-5.1522827-2.2816772-7.7271118l-1.4832764-3.7955933
	c-0.4922485-1.2698364-1.1405029-2.4882202-1.7097168-3.7399292c-2.4588623-4.9188232-5.5596924-9.7265015-9.8427124-13.7867432
	c-2.1447144-2.0223389-4.5774536-3.8391724-7.3070679-5.3099365l-2.114502-1.0153198
	c-0.7313843-0.2990723-1.4859009-0.5652466-2.2341309-0.8411255c-0.7584229-0.2577515-1.5604858-0.4405518-2.3450928-0.6534424
	c-0.7631226-0.1817627-1.4489746-0.293335-2.180481-0.43396c-11.5221558-2.0598145-23.9083252,0.7092896-33.723999,7.0075684
	c-2.5162964,1.4990845-4.7678223,3.3129272-7.005188,5.1364746l-3.1438599,2.9296265l-0.782959,0.7364502l-0.7159424,0.7855225
	l-1.4298096,1.5744019c-1.9884644,2.0510254-3.6081543,4.331604-5.3115845,6.5656128l-0.6345215,0.8399658l-0.5682983,0.8729248
	l-1.1334839,1.7479248l-2.2521973,3.506897c-5.6546021,9.6062012-9.5922852,20.2399902-11.2689819,31.326416
	c-0.8311157,5.5388794-1.0892334,11.1959839-0.6630249,16.8582764c0.2583618,2.833252,0.6416626,5.664917,1.2623901,8.4799805
	c0.6434326,2.8126221,1.5087891,5.5973511,2.6255493,8.3222656c1.1308594,2.7218018,2.5710449,5.3712769,4.3676147,7.8328247
	c1.7942505,2.4561157,3.9452515,4.7511597,6.5023193,6.600769c2.5341797,1.8510742,5.4952393,3.2651978,8.4889526,4.0371704
	l4.114502,0.883667c1.3886108,0.1936646,2.7695923,0.4046631,4.1511841,0.571167
	c5.5543213,0.5236206,11.1176147,0.2017822,16.4591064-0.8862305c5.3553467-1.0979004,10.4544678-2.8310547,15.2214355-5.5655518
	c0.5119629-0.293396,0.7709961-0.9124146,0.5879517-1.4990234
	C304.5939331,204.8657837,303.8726196,204.4874878,303.1943359,204.6990967z M336.6661987,160.8406372
	c-3.1263428,1.1109009-5.9655151,2.833252-8.493042,4.9103394c-5.0608521,4.1662598-8.8581543,9.8392334-11.1539917,15.9995117
	c-2.2779541,6.1670532-3.0682373,12.8877563-1.7905884,19.2570801c0.6543579,3.1728516,1.7791748,6.2822266,3.5102539,9.1271973
	c1.6704712,2.8935547,3.9434204,5.4783936,6.5258789,7.9209595l0.0241699,0.0228271
	c0.5215454,0.4933472,0.5444336,1.31604,0.0511475,1.8375854c-0.394104,0.416626-1.0001831,0.513855-1.4932861,0.2850342
	c-3.4654541-1.6144409-6.6235352-4.0361938-9.2576904-7.0197754c-2.585144-3.0181274-4.6184082-6.6083374-5.8101807-10.4759521
	c-1.9544678-6.2056885-1.9222412-12.8602905-0.3919678-19.0803833c-0.0123291-0.0056152-0.0252075-0.0094604-0.0375366-0.0151367
	c-0.5715942-0.2385864-1.1517334-0.4730225-1.7102661-0.757019l-1.6497192-0.9522095
	c-2.1547241-1.3751221-4.1791992-3.2307129-5.6411133-5.637207c-1.4743042-2.3869019-2.3112793-5.3117676-2.2572021-8.2495728
	c0.0432129-2.9362793,0.9082642-5.8493652,2.480896-8.3078003c1.5552979-2.4640503,3.755127-4.5637207,6.451416-5.8984985
	c2.6915283-1.3310547,5.9240723-1.769165,8.876709-1.1347046c2.9712524,0.6120605,5.4937744,2.2668457,7.2866211,4.2266846
	c0.96698,1.0571899,1.751709,2.1990356,2.4011841,3.3851929c3.2875977-2.1201782,6.993042-3.624939,10.8238525-4.3196411
	c3.9404297-0.6725464,7.9889526-0.4715576,11.6685791,0.6657715c0.6854858,0.211853,1.069397,0.93927,0.8575439,1.6247559
	c-0.171814,0.5559082-0.6827393,0.9135132-1.2352905,0.9158325l-0.022644-0.0003052
	C343.1624146,159.182312,339.7819824,159.6819458,336.6661987,160.8406372z M321.3209839,162.708374
	c-0.8327026-0.663269-1.6638184-1.2601318-2.5145264-1.7518921c-1.6712646-0.9851685-3.3670654-1.4934692-4.9212646-1.5291748
	c-1.5586548-0.0412598-3.0182495,0.3624878-4.3827515,1.1102905c-1.3378296,0.7999268-2.552063,1.9319458-3.461731,3.2966919
	c-1.8463135,2.7579346-2.2730713,6.2113037-1.0053101,9.4851685c0.6394043,1.6470337,1.7097168,3.2545776,3.0598755,4.7773438
	c0.4590454,0.5322876,0.9744873,1.0289917,1.5094604,1.5162354c0.0675659-0.1867676,0.1303101-0.3756714,0.2005615-0.5612183
	C312.178833,172.7661133,316.1137695,167.0258179,321.3209839,162.708374z M398.2301025,270.6552124
	c2.6699219-0.4165039,5.2674561-1.0588379,7.7815552-1.8886719c2.505249-0.8488159,4.9108276-1.8919067,7.2583618-3.0338745
	c4.6488037-2.3531494,8.9686279-5.2410889,12.923645-8.5229492c7.9100342-6.5791626,14.3913574-14.7189941,19.2507324-23.7192383
	l1.6848145-3.4332275l0.8345947-1.7198486l0.4157104-0.8605957l0.3583984-0.8970337
	c0.9457397-2.3980713,1.9677734-4.7525024,2.6345215-7.2875977l0.5576782-1.8701172l0.2769775-0.9350586l0.206665-0.9644165
	l0.8082275-3.859436c0.3699341-2.6225586,0.7255859-5.2515869,0.708313-7.9391479
	c0.2866211-10.6976929-3.4182739-21.7387085-10.505127-29.809021c-0.4577026-0.5076294-0.8708496-0.9932861-1.3758545-1.5062256
	c-0.5396118-0.5151367-1.0639038-1.0581665-1.6262817-1.5314331c-0.5718384-0.456604-1.1389771-0.9227295-1.7210083-1.3551025
	l-1.8010254-1.1785278c-2.4506836-1.4453735-5.0321045-2.4933472-7.6382446-3.2175903
	c-5.2214355-1.4337769-10.4689331-1.5938721-15.4984131-1.1799316c-5.0414429,0.4473877-9.9093018,1.4671021-14.5842285,2.9406738
	c-2.355896,0.6813354-4.6369629,1.543396-6.909729,2.3977661c-1.1425171,0.4111328-2.2407837,0.9342651-3.3521118,1.4130249
	c-1.1099854,0.4821777-2.2120972,0.9785156-3.3083496,1.4806519c-0.4974365,0.2276001-0.7863159,0.7789307-0.6622925,1.3342285
	c0.1424561,0.6380615,0.7752075,1.0397949,1.413269,0.8972778l0.0447388-0.0099487
	c4.6392822-1.0360107,9.2253418-2.1218262,13.8469849-2.7254028c2.3015747-0.3699951,4.6063232-0.5366211,6.8891602-0.7719727
	l3.4209595-0.1307373c1.1367188-0.0533447,2.2618408,0.0402222,3.3858032,0.050354
	c4.4724731,0.1815796,8.8569946,0.8531494,12.7260742,2.333313c1.9239502,0.7550659,3.6984863,1.7051392,5.2769165,2.8048096
	l1.1209106,0.8779297l1.0088501,0.9490356c0.3234863,0.3212891,0.5893555,0.6749878,0.892395,1.0005493
	c0.3019409,0.3620605,0.6259766,0.8145752,0.9437256,1.2103882c1.2435303,1.6710205,2.3112793,3.4667969,3.2559204,5.310791
	c0.8579102,1.8873291,1.6884155,3.7828979,2.2179565,5.7792969c1.1335449,3.9623413,1.5552368,8.1074219,1.3320923,12.2753296
	c-0.0496216,2.0844116-0.4535522,4.1737061-0.7666016,6.2601318l-0.7330322,3.1184692l-0.1802979,0.7796021l-0.2533569,0.7709351
	l-0.5031128,1.5418091c-0.5906982,2.0700073-1.5161743,4.0753784-2.3137817,6.1096802l-0.3063965,0.7612305l-0.3703613,0.7436523
	l-0.7401123,1.4874878l-1.4803467,2.9732056c-2.1251221,3.8659668-4.5214844,7.5883789-7.2619629,11.0437012
	c-2.7153931,3.4725342-5.7338867,6.7062988-9.0311279,9.6005249c-6.5164795,5.8116455-14.2374268,10.491394-22.3200684,12.3797607
	c-4.0169067,0.8780518-8.0898438,1.024231-11.6877441-0.0831909c-1.8086548-0.5445557-3.4501953-1.3754883-4.977417-2.5661621
	l-2.5280762-2.1157837l-2.3737183-2.3109131c-3.0831299-3.1867065-5.7171021-6.8652954-7.946228-10.8381958
	c-1.111145-1.9883423-2.112854-4.0609741-2.9454346-6.2080688c-0.8728638-2.1173096-1.6216431-4.3741455-2.1554565-6.5436401
	l-0.0237427-0.0974731c-0.1292114-0.5258179-0.6096191-0.9102783-1.1733398-0.8973389
	c-0.6517944,0.0148926-1.1680298,0.5553589-1.1531372,1.2071533c0.1154785,5.0413818,1.1749268,9.8682861,2.8548584,14.5948486
	c1.6810913,4.7110596,4.0691528,9.2324829,7.1168213,13.3455811c0.7866211,1.0059204,1.6077881,1.9902344,2.4190063,2.9887085
	l2.6469727,2.8115845c2.0272827,1.984436,4.543335,3.6384277,7.1998291,4.7498169
	c2.6662598,1.1300049,5.489502,1.7297363,8.2699585,1.9728394
	C392.791748,271.1858521,395.5559692,271.0591431,398.2301025,270.6552124z M383.173584,195.6182251
	c0.6591797,0.126709,1.3174438,0.2761841,1.956543,0.5080566c0.5899048,0.1889038,1.1879272,0.3729248,1.7686157,0.6082764
	l1.7249756,0.8079224c2.2642822,1.1861572,4.4397583,2.8621216,6.1017456,5.1350708
	c1.6726685,2.2523193,2.7562866,5.0950928,2.953186,8.0267334c0.2075806,2.9292603-0.4056396,5.9055786-1.7626343,8.4892578
	c-1.3392944,2.5878906-3.3518677,4.8676147-5.9243774,6.4277344c-2.5680542,1.5559082-5.7514038,2.2683716-8.7474365,1.8883057
	c-3.0126343-0.3562012-5.6672363-1.7896118-7.6208496-3.5892944c-1.380249-1.2716064-2.4658813-2.7124634-3.3336792-4.2324219
	c-1.8986206,1.6417847-3.9790039,3.0802612-6.2249146,4.2575684c-3.5726929,1.9012451-7.5463257,3.012207-11.5076294,3.3284302
	c-3.9716797,0.2571411-7.9185181-0.253479-11.513916-1.5532227c-0.6751099-0.2440796-1.0245361-0.9891968-0.7804565-1.6643066
	c0.1949463-0.5393677,0.7097778-0.8708496,1.2531738-0.8579102l0.0352783,0.0012207
	c3.5535278,0.0899048,6.987915-0.1394043,10.2129517-1.0123901c3.2337646-0.7958374,6.2241821-2.2067871,8.9259033-3.9945068
	c5.3981323-3.6140747,9.5780029-8.93573,12.3128662-14.9142456c2.7173462-5.9862671,4.0266724-12.6861572,3.3775024-19.2090454
	c-0.3267212-3.255127-1.1246338-6.4786377-2.557373-9.4711304c-1.3916016-3.0189819-3.4355469-5.7574463-5.9213257-8.2462769
	l-0.0147095-0.0147095c-0.507019-0.5076904-0.5065308-1.3302002,0.0011597-1.8372192
	c0.4116211-0.4111938,1.0317993-0.4874268,1.5214233-0.2312622c3.4107056,1.7890625,6.4224243,4.5019531,8.7414551,7.7579346
	c2.2852173,3.2799072,3.8808594,7.0706787,4.6977539,11.0022583
	C383.7071533,187.1894531,383.7733765,191.4523926,383.173584,195.6182251z M382.5366821,198.999939
	c-0.598938,2.5602417-1.4432983,5.0619507-2.5164795,7.4534912c-1.7615967,3.9356689-4.1920166,7.6326294-7.1925659,10.7987671
	c1.2858887,0.9192505,2.5410156,1.7387085,3.8173828,2.3374634c1.7492065,0.8389282,3.4822388,1.2006226,5.0337524,1.1035156
	c1.5565186-0.09198,2.9763794-0.6187744,4.2720337-1.4803467c1.2646484-0.9111938,2.3778076-2.1427612,3.1676636-3.5801392
	c1.604126-2.9055176,1.7345581-6.3826904,0.1919556-9.536377c-0.77771-1.5864258-1.9813232-3.0968018-3.4564819-4.4987183
	C384.8779297,200.6442261,383.7351685,199.821106,382.5366821,198.999939z"/>
</svg>
