<?xml version="1.0" standalone="no"?>
<!DOCTYPE svg PUBLIC "-//W3C//DTD SVG 20010904//EN"
 "http://www.w3.org/TR/2001/REC-SVG-20010904/DTD/svg10.dtd">
<svg version="1.0" xmlns="http://www.w3.org/2000/svg"
 width="1131.000000pt" height="1600.000000pt" viewBox="0 0 1131.000000 1600.000000"
 preserveAspectRatio="xMidYMid meet">

<g transform="translate(0.000000,1600.000000) scale(0.100000,-0.100000)"
fill="#000000" stroke="none">
<path d="M10570 13345 c-41 -13 -98 -28 -215 -55 -94 -22 -431 -90 -550 -111
-187 -33 -223 -48 -425 -169 -452 -272 -1214 -814 -1561 -1112 -31 -26 -61
-48 -65 -48 -5 0 -9 91 -9 203 0 182 -2 206 -20 242 -30 61 -51 67 -188 60
-248 -12 -668 -93 -967 -187 -122 -38 -275 -88 -295 -98 -11 -4 -69 -27 -130
-50 -60 -23 -123 -48 -140 -55 -16 -8 -82 -37 -145 -65 -331 -147 -671 -351
-930 -557 -108 -86 -301 -280 -360 -361 -102 -141 -165 -283 -177 -396 l-6
-61 -137 -140 c-190 -195 -489 -548 -569 -672 -19 -29 -39 -53 -45 -53 -6 0
-46 23 -89 50 -43 28 -80 50 -82 50 -2 0 -52 31 -112 68 -153 96 -249 156
-568 352 -154 95 -307 189 -340 210 -59 37 -238 148 -490 303 -71 44 -157 97
-190 117 -78 49 -305 189 -525 325 -96 59 -231 143 -300 185 -69 42 -174 108
-235 145 -60 38 -126 78 -145 89 -33 20 -47 21 -270 18 -140 -1 -246 -7 -262
-13 -28 -11 -28 -12 -28 -105 l0 -93 60 -64 c33 -35 786 -657 1674 -1381 1384
-1129 1616 -1322 1622 -1349 4 -18 7 -60 6 -95 -3 -108 -40 -204 -112 -287
-76 -87 -53 -142 107 -257 82 -59 226 -145 281 -167 38 -16 38 -16 15 -166 -9
-61 -13 -124 -9 -139 10 -39 75 -106 159 -163 68 -47 181 -103 206 -103 16 0
134 -121 169 -173 84 -124 149 -278 217 -520 12 -41 25 -64 46 -79 27 -20 29
-26 24 -63 -4 -25 -1 -57 9 -86 68 -199 32 -660 -75 -972 l-41 -119 16 -86
c30 -158 56 -240 87 -270 33 -31 36 -42 11 -42 -10 0 -33 -12 -51 -28 -39 -32
-46 -64 -55 -232 -4 -63 -11 -178 -16 -255 -9 -135 -13 -197 -45 -705 -8 -129
-20 -311 -26 -405 -14 -204 -5 -270 41 -309 38 -32 81 -40 127 -26 173 56 584
334 635 430 15 30 17 48 12 121 l-7 86 39 7 c122 23 292 164 358 296 34 70 38
86 47 205 32 427 134 882 269 1195 68 160 75 166 325 300 44 24 103 55 130 70
28 15 95 51 150 80 55 29 114 61 130 70 82 47 224 119 257 129 82 27 210 209
363 521 34 69 76 163 94 210 18 47 37 95 41 107 6 15 21 24 47 28 55 10 183
33 298 56 55 10 125 24 155 29 82 15 319 59 370 70 25 4 72 13 105 19 157 28
260 52 282 67 14 8 163 123 333 255 170 131 313 239 320 239 35 0 309 75 331
91 44 31 56 73 66 222 l9 138 186 187 c202 204 216 225 239 357 15 87 6 384
-15 510 -15 87 -43 212 -85 379 -108 427 14 1128 292 1676 119 236 215 374
350 511 92 92 450 387 568 469 39 27 78 59 87 71 58 83 -101 583 -336 1059
-117 237 -199 304 -322 265z m128 -352 c141 -277 322 -755 322 -852 0 -27 -30
-35 -46 -13 -10 15 -31 20 -96 25 -46 4 -117 11 -158 16 -236 29 -673 76 -850
91 -63 6 -117 13 -121 18 -4 4 -3 70 2 147 6 91 6 174 -1 239 -5 54 -10 107
-10 117 0 10 -13 33 -28 51 -25 27 -36 31 -75 31 -43 0 -53 -5 -155 -89 -99
-80 -429 -356 -492 -410 -14 -12 -95 -82 -180 -155 -348 -300 -607 -534 -777
-706 -68 -68 -125 -123 -127 -123 -3 0 -24 28 -47 62 -23 33 -57 78 -75 98
l-34 37 67 50 c38 27 95 72 128 99 73 61 260 212 296 239 15 11 87 65 160 121
380 287 785 562 1100 749 63 37 130 78 149 91 19 13 47 24 63 24 15 0 47 4 70
9 23 5 71 15 107 21 36 6 83 15 105 20 22 5 123 25 225 46 102 20 226 47 275
60 50 12 100 23 111 23 18 1 34 -24 92 -136z m-1153 -550 c-8 -136 -25 -308
-37 -373 -17 -96 -36 -138 -95 -214 -32 -40 -85 -108 -118 -152 -113 -148
-426 -554 -861 -1119 -80 -104 -178 -232 -216 -282 -39 -51 -73 -93 -76 -93
-2 0 -2 39 1 87 6 107 -7 310 -28 440 -18 107 -68 305 -92 364 -8 21 -13 44
-11 53 13 58 333 370 798 775 176 153 194 169 316 273 44 36 151 127 239 202
88 74 166 136 173 136 9 0 11 -22 7 -97z m550 -263 c310 -38 394 -47 615 -70
211 -23 230 -26 230 -42 0 -13 -62 -8 -290 21 -91 11 -203 25 -250 31 -161 20
-245 31 -316 42 -77 11 -94 7 -94 -22 0 -24 7 -25 170 -45 74 -8 173 -20 220
-25 47 -6 117 -15 155 -20 65 -9 228 -28 285 -33 14 -1 25 -7 25 -13 0 -6 -40
-45 -90 -86 -319 -266 -388 -335 -516 -513 -84 -118 -226 -376 -279 -509 l-23
-58 -56 6 c-31 3 -146 13 -256 22 -110 8 -252 20 -315 25 -63 5 -168 12 -232
15 -65 4 -118 11 -118 16 0 5 148 201 329 436 180 235 344 457 364 494 35 65
58 152 73 273 13 110 2 104 151 84 70 -10 169 -23 218 -29z m-2561 -210 c-1
-218 -29 -473 -69 -625 -20 -77 -27 -89 -77 -144 -107 -117 -532 -561 -537
-561 -3 0 -21 39 -40 88 -173 448 -471 842 -738 976 -29 14 -53 30 -53 35 0 4
53 30 118 56 64 26 126 51 137 55 11 5 67 25 125 45 58 20 116 40 130 45 165
59 548 151 750 180 47 7 105 16 130 20 25 5 63 7 85 7 l40 -2 -1 -175z m-1520
-315 c270 -124 598 -555 746 -982 l32 -92 -31 -39 c-31 -37 -32 -43 -37 -158
-3 -65 -3 -237 1 -382 8 -300 11 -310 95 -342 24 -9 46 -22 47 -27 2 -5 -36
-20 -84 -32 -48 -13 -101 -27 -118 -32 -16 -5 -88 -25 -160 -45 -223 -61 -193
-41 -354 -230 -79 -93 -150 -173 -158 -177 -7 -5 -52 -20 -98 -34 -95 -28 -86
-28 -293 27 -62 16 -126 30 -142 30 -35 0 -66 -18 -362 -207 -250 -160 -224
-150 -313 -113 -76 32 -218 80 -238 80 -40 0 -76 -57 -62 -99 5 -18 77 -57
165 -91 19 -8 38 -19 42 -24 4 -7 -38 -40 -104 -83 -61 -39 -115 -77 -119 -85
-7 -10 -71 -205 -95 -290 -6 -22 -23 -27 -129 -43 -203 -31 -728 -67 -753 -51
-6 3 1 28 18 63 35 74 59 169 67 272 l6 81 18 -39 c21 -48 53 -60 97 -37 24
13 39 37 80 133 125 297 203 592 205 774 1 66 -3 92 -16 113 -20 30 -35 31
-124 12 -35 -7 -63 -9 -63 -4 0 11 204 295 289 403 87 110 326 370 390 425 29
25 76 67 104 94 61 57 277 201 361 240 35 17 75 28 101 28 77 0 237 -75 376
-177 102 -75 327 -294 414 -403 l65 -83 -123 -152 c-275 -339 -337 -418 -337
-432 0 -29 28 -14 66 34 40 49 381 453 557 659 114 134 125 153 101 191 -24
36 -314 325 -394 393 -233 195 -463 328 -650 374 -30 7 -67 13 -82 14 -16 0
-28 4 -28 9 0 15 151 130 310 236 179 118 301 190 472 275 136 68 146 69 242
25z m-5431 -364 c62 -37 227 -139 367 -226 140 -87 293 -181 340 -210 47 -28
171 -105 275 -169 105 -65 228 -142 275 -171 47 -29 150 -93 230 -142 80 -49
224 -138 320 -197 96 -59 180 -113 187 -119 25 -25 -90 -228 -178 -314 -24
-24 -48 -43 -54 -43 -15 0 -2025 1640 -2025 1651 0 5 34 9 76 9 l76 0 111 -69z
m7163 -63 c44 -88 91 -205 100 -253 7 -37 6 -39 -76 -116 -62 -60 -80 -84 -75
-97 26 -67 -18 -790 -51 -822 -10 -9 -177 -59 -183 -54 -1 1 13 34 32 73 111
221 51 439 -140 511 -106 40 -258 15 -368 -59 -26 -18 -50 -30 -52 -27 -9 8 7
41 34 71 32 35 371 392 490 515 155 161 161 169 188 255 38 120 34 113 52 90
8 -11 30 -50 49 -87z m-2656 -202 c159 -39 339 -141 561 -317 119 -94 429
-396 429 -417 0 -12 -97 -142 -106 -142 -1 0 -33 37 -70 83 -145 175 -339 358
-482 456 -236 160 -472 212 -625 137 -56 -28 -147 -117 -147 -145 0 -7 -4 -9
-10 -6 -21 13 95 197 172 272 89 86 162 107 278 79z m2798 -208 c37 -143 57
-349 48 -498 -6 -119 -28 -278 -39 -298 -8 -12 -146 -57 -153 -49 -3 2 3 65
11 138 10 77 19 247 21 398 l5 265 42 43 c23 24 45 43 48 43 4 0 11 -19 17
-42z m1175 18 c78 -8 205 -19 282 -26 77 -6 183 -15 235 -20 52 -5 141 -12
196 -16 56 -3 107 -10 113 -13 7 -5 -2 -45 -29 -127 -75 -223 -126 -440 -155
-667 -16 -125 -20 -469 -6 -565 9 -65 2 -70 -72 -53 -29 6 -113 23 -187 37
-74 14 -223 43 -330 64 -107 21 -256 50 -330 64 -74 14 -168 33 -208 43 -68
16 -77 16 -140 1 -61 -16 -148 -30 -432 -74 -129 -19 -185 -29 -319 -55 -109
-21 -123 -22 -305 -10 -265 16 -500 30 -639 37 -64 3 -119 10 -122 15 -3 4 14
13 37 19 149 38 277 73 301 82 17 7 48 8 80 3 93 -13 120 -9 307 49 41 13 129
40 195 61 66 20 176 54 245 75 69 21 172 53 229 71 134 41 145 50 285 234 38
49 129 167 201 260 72 94 169 220 215 280 141 185 190 245 201 245 5 0 74 -6
152 -14z m-3969 -57 c88 -26 187 -76 291 -147 118 -81 176 -131 320 -276 152
-153 228 -241 223 -257 -2 -6 -28 17 -58 52 -181 211 -324 343 -510 471 -195
133 -358 181 -491 144 -33 -10 -63 -15 -67 -12 -3 3 2 6 11 6 10 0 17 4 17 8
0 14 63 29 129 31 39 0 91 -7 135 -20z m-467 -141 c-3 -8 -6 -5 -6 6 -1 11 2
17 5 13 3 -3 4 -12 1 -19z m2734 -245 c75 -39 112 -100 117 -195 7 -108 -27
-205 -107 -305 -37 -48 -47 -53 -135 -82 -52 -17 -105 -31 -116 -31 -29 0
-167 49 -179 64 -5 6 -11 109 -12 230 l-2 219 24 19 c88 70 186 106 285 107
58 1 80 -4 125 -26z m-4526 -494 c36 -22 65 -43 65 -46 0 -3 -19 -41 -42 -86
-47 -90 -136 -213 -191 -266 -42 -40 -49 -38 -126 29 l-44 38 47 53 c59 65
158 215 183 275 10 24 24 44 31 44 7 0 42 -18 77 -41z m560 -344 c44 -27 98
-60 120 -74 22 -15 63 -37 92 -50 46 -21 57 -23 95 -13 62 16 138 31 173 34
30 3 30 3 33 -56 4 -82 -26 -258 -69 -401 -21 -71 -80 -252 -88 -270 -30 -68
-41 -95 -56 -132 -17 -42 -45 -59 -45 -27 0 21 -50 91 -97 135 -21 20 -186
156 -366 303 l-328 267 54 62 c29 34 71 87 94 117 43 58 133 205 133 218 0 5
5 13 11 19 9 9 31 -1 88 -36 42 -26 112 -70 156 -96z m4815 -109 c0 -6 -121
-72 -405 -221 -60 -32 -129 -69 -152 -81 -50 -27 -45 -39 -44 110 0 72 4 102
13 107 7 4 70 15 138 23 155 20 314 45 360 56 39 9 90 12 90 6z m807 -41 c148
-28 222 -43 278 -55 22 -5 51 -11 65 -13 109 -19 347 -71 357 -79 6 -5 16 -28
22 -51 5 -23 19 -78 31 -122 42 -168 62 -314 63 -480 1 -101 -4 -176 -11 -203
-11 -34 -47 -77 -200 -233 -103 -105 -191 -197 -195 -205 -13 -23 -41 -16
-159 40 -62 29 -156 74 -208 99 -52 24 -156 74 -230 110 -137 66 -238 114
-435 207 -60 28 -133 63 -162 77 l-52 25 97 111 c220 250 280 317 380 422 100
105 177 199 201 243 17 32 13 77 -10 106 l-20 26 29 0 c17 0 88 -11 159 -25z
m-2272 -15 c138 -6 322 -15 410 -20 88 -6 194 -10 236 -10 42 0 78 -3 82 -6 3
-3 -106 -94 -241 -203 -136 -109 -253 -205 -261 -214 -15 -19 -25 -101 -41
-340 -5 -81 -13 -154 -17 -161 -11 -19 -332 -302 -572 -505 -205 -173 -279
-221 -363 -236 -30 -5 -43 2 -153 96 -66 56 -172 145 -235 197 -63 53 -117 99
-120 102 -3 3 -40 34 -82 69 -45 37 -75 68 -71 75 28 47 105 156 111 156 8 0
174 -64 217 -84 88 -41 280 -105 300 -100 40 10 61 97 31 127 -8 8 -52 29 -98
47 -46 18 -96 38 -113 45 -16 8 -65 27 -107 43 -114 44 -138 56 -138 67 0 11
263 420 284 443 10 10 226 92 242 92 2 0 31 35 65 78 35 42 99 119 143 171
l80 93 80 -6 c45 -3 194 -10 331 -16z m1821 -65 c30 -14 54 -30 54 -36 0 -29
-560 -586 -598 -595 -34 -8 -101 -46 -143 -81 -40 -34 -109 -139 -109 -167 0
-21 -116 -150 -129 -144 -20 9 -311 212 -311 217 0 3 98 105 218 226 l217 221
140 73 c136 72 198 105 415 219 58 30 121 64 140 74 44 23 41 23 106 -7z
m-1036 -162 l1 -138 -257 -252 c-141 -139 -263 -253 -272 -253 -11 0 -13 8 -9
38 3 20 9 101 13 180 l7 142 145 118 c80 64 195 159 256 209 61 51 112 93 114
93 1 0 2 -62 2 -137z m-2015 -218 c-36 -53 -65 -105 -65 -116 0 -33 -30 -169
-56 -257 -25 -82 -32 -93 -90 -141 -16 -14 -56 -48 -89 -76 -57 -49 -69 -54
-223 -99 -144 -41 -175 -54 -256 -107 -51 -32 -96 -59 -99 -59 -23 0 5 25 92
80 l98 63 94 186 93 186 218 145 c163 109 227 157 255 194 40 51 81 96 88 96
2 0 -25 -43 -60 -95z m-880 -125 c36 -16 67 -30 69 -30 2 0 25 -9 51 -21 66
-29 39 -44 -29 -17 -28 11 -80 31 -116 43 -38 14 -66 30 -68 39 -5 23 19 20
93 -14z m305 -86 c0 -7 -4 -11 -162 -147 -75 -65 -139 -125 -142 -135 -3 -9
-17 -80 -31 -157 -30 -162 -43 -215 -53 -215 -9 0 -116 88 -119 98 -2 4 16 71
40 150 l42 144 205 133 c198 129 220 142 220 129z m3411 -358 c129 -62 259
-125 289 -139 53 -24 193 -90 384 -180 49 -23 153 -73 230 -112 l141 -70 -3
-95 c-2 -54 -9 -100 -15 -107 -13 -12 -208 -65 -216 -58 -2 3 -9 53 -15 112
-6 60 -14 113 -18 119 -8 12 -53 35 -224 115 -49 23 -127 59 -174 81 -47 22
-112 53 -145 68 -33 15 -121 57 -195 93 -74 35 -157 74 -185 87 -162 73 -213
98 -218 107 -15 24 66 93 109 93 12 0 126 -51 255 -114z m-2667 19 c105 -41
202 -81 218 -87 27 -13 46 -38 28 -38 -11 0 -94 32 -155 60 -23 10 -66 28 -96
40 -56 21 -62 24 -141 59 -26 12 -53 21 -58 21 -6 0 -8 5 -5 10 3 6 9 10 13
10 4 0 92 -34 196 -75z m1767 -31 l162 -105 -59 -60 c-32 -32 -62 -59 -67 -59
-8 0 -280 161 -330 195 -17 12 -13 18 45 74 35 33 69 61 75 61 7 0 86 -48 174
-106z m789 -172 c80 -37 197 -93 385 -182 44 -21 143 -68 220 -105 77 -37 150
-71 163 -76 12 -5 22 -12 22 -17 0 -4 -23 -26 -52 -47 -29 -22 -174 -139 -323
-260 -148 -121 -283 -230 -300 -242 -29 -20 -167 -58 -305 -83 -36 -6 -83 -15
-105 -20 -22 -5 -56 -12 -75 -15 -127 -22 -266 -45 -335 -55 -44 -6 -107 -15
-140 -20 -33 -5 -100 -14 -150 -20 -49 -7 -121 -16 -159 -21 -38 -5 -135 -13
-215 -16 l-146 -6 70 74 c75 78 177 187 291 309 39 41 110 118 160 170 49 52
150 160 225 240 74 80 196 210 270 288 74 79 150 168 169 197 l34 53 106 -53
c58 -29 143 -71 190 -93z m-959 9 c90 -54 164 -103 164 -109 0 -16 -234 -262
-248 -262 -11 0 -305 215 -337 246 -11 11 -12 17 -4 22 7 4 50 42 96 84 117
106 131 117 149 118 8 0 89 -44 180 -99z m-2019 -34 c19 -20 438 -368 508
-423 33 -26 60 -50 60 -54 0 -11 -36 -19 -142 -30 -51 -5 -156 -17 -233 -25
-77 -9 -176 -20 -220 -25 -44 -5 -125 -14 -180 -20 -55 -6 -138 -15 -185 -20
-47 -5 -188 -21 -315 -35 -126 -14 -268 -31 -315 -36 -47 -5 -121 -14 -165
-19 -44 -6 -113 -13 -154 -17 l-74 -6 6 39 c4 21 14 84 22 139 8 55 19 120 23
144 l7 45 140 22 c77 12 154 25 170 28 17 4 48 11 70 16 284 63 676 173 780
219 25 12 172 68 182 71 1 0 8 -6 15 -13z m-811 -79 c33 -28 58 -56 56 -62 -2
-6 -19 -14 -38 -18 -19 -5 -52 -12 -74 -17 -109 -25 -321 -63 -415 -75 -85
-12 -109 -12 -130 -1 -14 7 -43 16 -65 19 -44 8 -216 96 -209 107 2 4 59 10
126 13 152 8 316 22 428 37 97 13 232 38 239 45 10 10 26 1 82 -48z m2467
-140 c64 -45 143 -100 175 -122 60 -42 67 -55 42 -76 -17 -14 -40 0 -364 232
-20 14 -21 19 -10 32 8 8 20 15 27 16 8 0 66 -37 130 -82z m-247 -152 l42 -83
-34 -31 c-19 -17 -39 -32 -44 -32 -11 0 -85 141 -85 162 0 16 51 68 66 68 7 0
32 -38 55 -84z m2411 -123 c4 -73 2 -79 -20 -98 -24 -19 -183 -142 -252 -195
-18 -14 -109 -84 -202 -157 -138 -108 -176 -132 -211 -137 -23 -4 -60 -11 -82
-16 -22 -5 -69 -14 -105 -20 -36 -6 -85 -15 -110 -20 -25 -5 -108 -21 -185
-35 -77 -14 -162 -30 -190 -36 -287 -56 -391 -71 -600 -88 -192 -16 -327 -21
-370 -13 -35 6 -40 11 -43 38 l-3 31 153 12 c209 16 372 36 663 82 485 76 803
146 869 191 31 21 316 247 326 258 5 5 114 95 150 123 27 21 134 111 160 135
41 37 48 29 52 -55z m-2660 -90 c59 -121 80 -142 203 -198 58 -27 104 -54 103
-60 -2 -7 -45 -57 -96 -112 -135 -146 -127 -128 -125 -268 2 -129 16 -252 31
-267 22 -22 208 -40 365 -35 177 6 172 9 140 -67 -44 -105 -185 -372 -242
-459 -48 -71 -74 -101 -100 -113 -20 -9 -83 -42 -141 -74 -58 -31 -150 -81
-205 -110 -159 -84 -245 -130 -313 -167 -34 -19 -102 -56 -150 -81 -107 -57
-127 -73 -177 -137 -164 -214 -361 -937 -381 -1400 -6 -136 -14 -163 -62 -223
-40 -49 -128 -122 -148 -122 -14 0 -23 29 -43 140 -28 152 -103 425 -176 645
-29 87 -102 283 -115 310 -5 11 -28 62 -50 114 -22 51 -51 112 -64 136 l-24
43 60 138 c142 328 281 734 343 999 32 141 35 154 35 179 0 14 13 47 29 73 46
75 109 242 180 478 5 17 17 64 26 105 10 41 21 79 26 84 8 9 47 15 205 32 l61
7 47 -73 c47 -72 167 -289 202 -365 l19 -40 57 3 c145 6 375 133 414 229 19
43 18 386 0 583 -8 80 -12 148 -9 153 13 22 37 -2 75 -80z m458 42 c41 -14 79
-31 84 -35 15 -14 -55 -90 -79 -86 -20 4 -158 64 -183 80 -11 6 -6 16 20 43
38 40 44 40 158 -2z m-950 -28 c-36 -33 -186 -140 -245 -174 -84 -49 -199 -65
-745 -104 -256 -18 -700 -23 -787 -10 -73 12 -160 46 -192 76 -11 11 -5 14 40
19 30 3 158 17 284 31 127 13 271 29 320 35 50 6 131 15 180 21 50 5 124 14
165 19 41 6 138 17 215 25 77 8 178 19 225 25 163 19 256 29 360 40 58 7 114
13 125 14 11 2 33 4 50 5 l30 1 -25 -23z m354 -34 c3 -16 10 -118 16 -229 12
-210 3 -371 -22 -401 -34 -41 -154 -109 -255 -144 -83 -28 -99 -26 -120 19
-33 70 -124 234 -169 304 -35 55 -43 73 -32 79 7 5 18 9 24 9 25 0 234 149
449 319 49 39 93 71 97 71 3 0 9 -12 12 -27z m-1014 -449 c0 -41 -124 -430
-168 -524 -26 -58 -43 -72 -122 -102 -111 -43 -310 -59 -359 -28 -8 4 -16 28
-18 51 -9 97 -79 300 -164 476 -21 44 -39 85 -39 91 0 6 78 12 198 16 108 4
285 13 392 20 279 19 280 19 280 0z m-255 -756 c-16 -71 -73 -275 -113 -408
-21 -69 -99 -298 -125 -365 -8 -22 -30 -78 -47 -125 -60 -160 -144 -350 -155
-347 -19 7 -16 37 9 87 78 155 129 461 130 775 1 207 -9 287 -44 379 l-10 26
68 0 c74 1 195 20 257 42 22 8 42 13 44 11 2 -1 -4 -35 -14 -75z m-374 -1394
c28 -58 49 -109 47 -115 -2 -5 -22 8 -45 29 -38 33 -44 44 -53 102 -19 122
-13 120 51 -16z m128 -349 c36 -109 61 -227 61 -294 0 -43 -6 -56 -47 -111
-75 -97 -73 -84 -53 -280 19 -183 33 -297 50 -415 30 -210 32 -237 13 -252
-31 -24 -238 -160 -273 -178 l-33 -17 6 118 c4 66 14 223 22 349 8 127 19 304
25 395 6 91 15 233 20 315 6 83 13 202 16 265 7 144 9 157 34 165 11 3 38 22
62 41 l42 35 12 -23 c7 -13 26 -64 43 -113z m172 -497 c16 -56 36 -132 44
-168 9 -36 20 -81 25 -100 5 -19 12 -60 16 -90 7 -51 6 -54 -9 -41 -10 7 -17
22 -17 32 0 26 -19 109 -70 304 -39 149 -47 194 -30 178 7 -6 25 -58 41 -115z
m-67 -88 c14 -58 34 -148 45 -200 l20 -95 -26 -19 c-47 -36 -53 -68 -42 -227
6 -92 6 -146 0 -152 -12 -12 -16 15 -31 193 -6 74 -20 209 -31 300 -11 91 -22
188 -26 217 -5 43 -2 56 17 83 31 44 42 29 74 -100z"/>
</g>
</svg>
