<svg version="1.1" id="Layer_1" xmlns="http://www.w3.org/2000/svg" xmlns:xlink="http://www.w3.org/1999/xlink" x="0px" y="0px"
	 width="100%" viewBox="0 0 720 1024" enable-background="new 0 0 720 1024" xml:space="preserve">
<path fill="#000000" opacity="1.000000" stroke="none" 
	d="
M1.000000,285.464661 
	C11.256125,281.645691 21.808956,283.156708 32.253342,283.234894 
	C35.464024,283.258881 38.142632,285.422546 40.832657,287.085785 
	C102.189636,325.022705 163.540710,362.969177 224.889969,400.918579 
	C233.296249,406.118530 233.070435,405.960846 239.147324,398.097565 
	C250.563156,383.325897 262.539062,369.011292 276.098755,356.121368 
	C278.857727,353.498688 280.610443,350.715179 281.212036,346.794373 
	C283.731628,330.372803 293.935181,318.467926 305.401215,307.567291 
	C325.191559,288.752808 348.470947,275.228943 373.063477,263.761047 
	C404.828674,248.948456 438.053436,239.056885 472.738770,234.105209 
	C477.504944,233.424789 482.345428,233.099136 487.160919,232.975922 
	C492.153229,232.848175 495.205750,235.443115 496.338898,240.414307 
	C497.088654,243.703354 497.251984,246.999161 497.237335,250.336716 
	C497.217804,254.795319 497.232513,259.254059 497.232513,263.546204 
	C499.367310,264.384033 500.170197,263.036713 501.128693,262.255585 
	C534.758362,234.847961 570.027344,209.786560 607.253784,187.465790 
	C616.162781,182.124023 626.115967,181.063812 635.851562,179.152176 
	C648.758545,176.617813 661.673218,174.177216 674.397644,170.816666 
	C683.051819,168.531113 688.308777,170.460770 692.907837,178.279129 
	C700.699463,191.524780 706.664490,205.651169 712.058899,220.006683 
	C715.455017,229.044449 718.339233,238.247498 719.940796,247.817902 
	C720.861267,253.319016 719.471802,257.156647 714.365234,260.353455 
	C668.603394,289.000885 643.809387,330.973511 635.871704,383.844269 
	C632.819641,404.173553 634.263428,423.846252 639.670471,443.626587 
	C643.355347,457.106995 645.252808,471.048645 643.246887,485.167938 
	C642.264343,492.083740 640.068115,498.306458 634.613831,503.206879 
	C629.662720,507.655182 625.318665,512.777527 620.385010,517.247253 
	C616.883728,520.419250 615.375488,524.146057 615.279785,528.674988 
	C615.247986,530.174316 615.184021,531.673035 615.134338,533.171997 
	C614.787415,543.635254 613.208252,546.762268 602.903564,548.088928 
	C587.539551,550.066956 577.543579,560.461792 566.165649,568.865784 
	C562.148315,571.833069 557.994812,574.722229 554.454956,578.207153 
	C547.747620,584.810425 539.055847,585.572693 530.599487,587.173828 
	C510.971497,590.890259 491.351044,594.651733 471.685944,598.161926 
	C468.364075,598.754883 467.428680,600.779663 466.448608,603.344482 
	C461.077332,617.400269 454.291748,630.737061 446.014801,643.313110 
	C442.474274,648.692566 437.998322,652.451843 431.990356,655.445740 
	C414.410675,664.206055 397.325104,673.958984 380.061005,683.350769 
	C376.251282,685.423340 374.871735,689.337402 373.264771,692.958923 
	C365.712280,709.979309 361.381195,727.944519 358.332794,746.211792 
	C356.883636,754.895630 356.124268,763.710388 355.389404,772.494019 
	C354.099609,787.910706 345.085663,797.315979 331.631073,803.031555 
	C328.262024,804.462769 326.495605,805.904114 327.470856,809.493896 
	C328.846497,814.557556 326.635437,818.312012 323.130493,821.465271 
	C312.648987,830.895081 300.975677,838.579651 288.044586,844.188721 
	C279.526184,847.883728 273.726227,844.182495 273.717834,834.786865 
	C273.708588,824.474060 274.420776,814.154236 275.015045,803.848816 
	C275.839020,789.561279 276.850311,775.284607 277.773468,761.002808 
	C278.482300,750.036865 279.231140,739.073181 279.854828,728.102356 
	C280.099121,723.804688 282.179749,720.610352 285.558563,717.998352 
	C282.067047,712.085571 281.419647,705.553467 279.945892,699.273438 
	C279.014343,695.303955 279.658295,691.454041 280.999023,687.523499 
	C287.423096,668.689941 291.003632,649.218811 287.488159,629.540649 
	C284.206482,611.171082 277.394867,593.671448 268.217377,577.311462 
	C264.759033,571.146545 259.569031,566.454590 252.709030,563.931335 
	C249.245270,562.657288 246.283157,560.453735 243.137955,558.575073 
	C234.912872,553.662231 230.743973,546.980896 233.986801,537.347168 
	C235.895752,531.676025 233.732224,529.005676 228.688690,526.650330 
	C221.902435,523.481201 215.746094,519.102478 209.940201,514.314819 
	C204.025253,509.437164 203.784180,505.242065 208.935684,499.575287 
	C214.798416,493.126190 215.690750,485.332947 214.670410,477.125122 
	C214.353882,474.578857 212.141235,473.312469 210.349991,471.847839 
	C179.909134,446.957581 149.455383,422.083099 119.014893,397.192383 
	C82.383217,367.239227 45.759262,337.276642 9.139403,307.309021 
	C6.295912,304.982086 3.695833,302.403595 1.242210,299.226807 
	C1.000000,294.643097 1.000000,290.286194 1.000000,285.464661 
M362.012451,407.484192 
	C357.085144,412.052490 353.858734,418.375336 347.930603,422.361359 
	C346.114471,419.183197 348.011292,417.815521 349.164215,416.366486 
	C357.045715,406.460571 364.835052,396.473450 373.009369,386.813110 
	C375.555634,383.803955 375.160004,381.975647 372.950806,379.201324 
	C366.380676,370.950470 358.922913,363.587158 351.023621,356.666107 
	C344.470306,350.924347 337.112793,346.410370 329.063995,342.980713 
	C323.901459,340.780975 319.254028,341.209778 314.300903,343.879120 
	C303.650635,349.618805 294.174622,356.912079 285.519165,365.224945 
	C270.811462,379.350555 258.071289,395.162628 246.742767,412.108704 
	C246.092224,413.081818 244.643768,413.948517 245.602921,415.515015 
	C254.807037,414.669312 257.947845,417.652344 256.821594,426.397614 
	C254.484558,444.544617 249.022568,461.794586 241.479263,478.407104 
	C238.813660,484.277527 236.496170,485.105072 230.349106,482.651093 
	C230.671265,489.850281 227.599701,496.235931 225.696396,502.760498 
	C227.644043,504.262695 229.543869,503.757507 231.304398,503.735687 
	C244.971283,503.566498 258.506927,502.079315 272.061890,500.316986 
	C277.905548,499.557251 280.829712,497.395142 281.741028,491.878937 
	C283.244446,482.778900 287.687378,475.840729 296.359161,471.960999 
	C297.344269,471.520264 298.516479,470.975464 298.905792,469.380676 
	C296.727142,467.064453 293.457947,466.604950 290.704681,465.225708 
	C287.833649,463.787537 286.106049,461.874634 287.302734,458.484711 
	C288.551605,454.947083 291.088196,454.074585 294.470093,455.267426 
	C299.178986,456.928314 303.923187,458.507751 308.550293,460.374817 
	C311.128265,461.415100 313.189392,461.226715 315.518188,459.664215 
	C321.602234,455.582184 328.277863,452.264069 333.913879,447.657928 
	C343.954651,439.451965 354.312012,438.183777 366.289581,442.844116 
	C374.516998,446.045319 381.919556,443.156525 387.779602,436.633179 
	C390.116119,434.032166 392.633759,431.508545 394.499298,428.586029 
	C399.704712,420.431244 407.415009,416.688202 416.517456,414.631897 
	C423.513336,413.051453 430.555237,411.384399 437.907990,408.271210 
	C433.507294,406.305511 430.861694,403.976440 430.658203,399.445343 
	C430.045441,385.801178 429.606140,372.160431 429.896057,358.501038 
	C429.946167,356.140747 429.763336,353.491455 431.319214,351.785309 
	C434.354553,348.456787 433.503357,345.169739 432.225616,341.624542 
	C426.524506,325.806030 418.607117,311.217773 407.635925,298.442993 
	C401.336212,291.107697 394.595337,284.169189 385.632111,279.893005 
	C381.267883,277.810883 377.276794,277.798767 372.790802,280.026672 
	C360.382874,286.188843 348.348328,292.955566 336.983215,300.866119 
	C331.899567,304.404541 326.716980,307.887848 321.692780,312.951752 
	C330.359619,314.588409 337.602722,317.351501 344.490967,321.176788 
	C362.649353,331.260803 377.695404,345.060089 391.535217,360.298218 
	C396.427917,365.685242 396.235931,366.673645 391.336731,372.482422 
	C381.675842,383.936920 372.069702,395.437622 362.012451,407.484192 
M390.921143,594.613037 
	C388.094330,595.575623 385.365326,596.738953 382.360901,597.265442 
	C378.185944,597.997131 376.066956,596.603394 374.450287,592.598267 
	C372.405975,587.533813 369.076813,582.998962 366.881653,577.981934 
	C363.216370,569.604919 358.347076,564.735168 348.216095,567.888611 
	C344.870911,568.929871 343.046234,569.926086 342.271820,573.280518 
	C339.682465,584.496399 336.516418,595.580933 331.535065,605.968933 
	C328.841095,611.586792 327.044098,617.316284 325.728088,623.356079 
	C320.245026,648.520813 310.953644,672.409485 300.897308,696.020752 
	C299.872406,698.427124 299.386353,700.409058 300.686066,703.037964 
	C313.305939,728.563843 321.744019,755.496887 327.295807,783.376404 
	C327.580536,784.806274 327.616302,786.389465 329.152466,787.202148 
	C335.817596,783.795654 340.658936,778.320984 340.697906,773.233948 
	C340.801758,759.661377 343.253693,746.393372 345.872925,733.187561 
	C349.278625,716.016418 353.859161,699.140503 361.717499,683.361450 
	C364.571106,677.631592 368.168945,672.556396 374.112854,669.427979 
	C388.409210,661.903503 402.271637,653.449402 416.957184,646.802124 
	C429.179810,641.269714 437.043091,632.532166 442.463409,620.839600 
	C445.506226,614.275757 449.338959,608.044983 451.390259,601.033691 
	C448.732208,599.805786 446.547485,600.384827 444.421753,600.359863 
	C437.103729,600.273865 429.785187,600.729736 422.493164,599.425659 
	C418.703613,598.747986 417.013306,596.856262 416.852142,593.102417 
	C416.723907,590.116882 416.339294,587.135010 415.932159,584.170166 
	C414.894592,576.614319 416.381805,570.106201 422.424133,564.756348 
	C425.133942,562.357178 428.397278,559.999268 429.567535,555.318848 
	C418.963928,552.670288 411.945068,546.005066 408.119385,535.762390 
	C408.339996,547.985596 408.776154,559.761536 409.259125,571.530579 
	C409.663666,581.387268 405.683838,587.763672 397.049835,591.754272 
	C395.236511,592.592407 393.442383,593.472107 390.921143,594.613037 
M609.838928,334.933319 
	C598.575500,333.984100 587.267151,333.379181 576.070801,331.916656 
	C571.575928,331.329529 569.170593,332.503204 566.562683,335.964203 
	C553.641113,353.112518 540.456177,370.062469 527.358276,387.077881 
	C524.376831,390.951050 521.060303,394.217407 516.100098,395.705200 
	C497.773132,401.202423 479.508606,406.907959 461.224152,412.546661 
	C458.983093,413.237793 456.632172,414.165833 454.378937,413.498810 
	C445.299408,410.810699 437.920471,416.626495 429.628113,417.934296 
	C438.917755,420.634308 448.442474,419.516022 457.800385,420.502197 
	C467.041443,421.476074 476.544861,422.630096 485.665588,421.515472 
	C504.118469,419.260406 522.394653,415.548798 540.730408,412.361694 
	C542.718323,412.016144 544.647888,411.624054 546.652527,412.028320 
	C568.166138,416.366943 589.675415,420.727264 611.198242,425.020111 
	C614.181946,425.615204 617.163879,426.843628 620.630554,425.863556 
	C616.806946,395.174255 622.982849,365.939240 633.064453,336.668976 
	C624.959961,336.078888 617.862854,335.562164 609.838928,334.933319 
M348.743713,489.447021 
	C341.195770,494.945679 340.932190,498.120514 347.626495,503.775635 
	C357.043274,511.730621 366.466278,519.678528 375.928528,527.579224 
	C381.977966,532.630371 383.651215,532.777405 390.548492,528.962646 
	C392.141205,528.081787 393.639282,526.985657 395.052460,525.831360 
	C410.274597,513.397278 425.074493,500.472198 439.743805,487.393707 
	C441.741882,485.612274 442.684296,483.665894 442.841522,480.936493 
	C443.291229,473.131226 444.179016,465.351440 444.640320,457.546570 
	C444.835419,454.245697 446.196259,451.997101 448.740906,450.003082 
	C456.606049,443.839813 464.377716,437.555115 472.094574,431.206818 
	C473.383636,430.146362 475.339478,429.509735 475.637909,427.266968 
	C474.930756,427.023468 474.320404,426.647552 473.695862,426.622162 
	C451.907349,425.737335 430.117340,424.889618 408.328094,424.022705 
	C406.113312,423.934601 404.550812,424.984131 403.215088,426.625885 
	C399.431244,431.276947 395.465302,435.788391 391.854797,440.569061 
	C389.432648,443.776184 386.550873,445.826294 382.675903,446.971680 
	C379.060608,448.040375 374.542358,448.275787 372.306183,451.422516 
	C366.156708,460.075989 360.611725,469.159058 354.771851,478.157990 
	C356.669098,480.076782 358.778290,480.681580 360.741516,481.484283 
	C367.214691,484.131226 373.689362,486.778748 380.217102,489.286438 
	C383.825989,490.672821 385.974762,492.722870 384.473663,496.833221 
	C382.871887,501.219116 379.848267,501.291168 376.006073,499.750244 
	C367.199799,496.218414 358.310120,492.894653 348.743713,489.447021 
M602.728882,428.910583 
	C591.273438,426.643738 579.817993,424.376862 567.404663,421.920471 
	C569.733643,427.356140 567.920349,430.534027 565.333923,433.976501 
	C558.695251,442.812561 550.386597,450.095245 543.294922,458.493164 
	C537.530884,465.318848 531.636414,472.034363 525.548035,479.090607 
	C526.370483,479.662720 526.743896,480.004852 527.180969,480.214630 
	C551.204529,491.745728 575.238770,503.254608 599.251282,514.808655 
	C601.095642,515.696106 602.346924,515.176514 603.660217,513.834961 
	C610.536621,506.810394 617.464111,499.835754 624.362854,492.833038 
	C627.435974,489.713654 628.764343,485.957458 628.947693,481.569122 
	C629.601318,465.923370 627.265625,450.712982 622.818054,435.755463 
	C622.159180,433.539673 621.000183,432.453247 618.740479,432.052887 
	C613.664978,431.153656 608.624817,430.054413 602.728882,428.910583 
M461.584930,545.078003 
	C452.337311,554.953613 443.089691,564.829224 432.921692,575.687683 
	C436.080170,575.687683 437.565918,575.790283 439.033966,575.672424 
	C465.081116,573.581177 490.866058,569.567261 516.476685,564.523071 
	C523.863403,563.068359 531.699646,562.468140 537.944763,557.167603 
	C545.686584,550.596741 553.649841,544.286499 561.521423,537.868530 
	C566.487976,533.819214 571.461731,529.778748 576.346130,525.804382 
	C575.113159,523.380493 573.145264,523.106201 571.549866,522.341980 
	C554.132263,513.998535 536.696594,505.692627 519.257202,497.394867 
	C516.109802,495.897339 512.934998,493.380951 509.750946,493.346222 
	C506.700348,493.312988 505.866852,497.820465 503.723938,500.084198 
	C489.759827,514.835510 475.943451,529.726624 461.584930,545.078003 
M478.657562,294.160675 
	C480.918640,280.673584 482.207977,267.113281 482.108704,253.416718 
	C482.078217,249.215652 480.697388,248.112549 476.385498,248.613739 
	C453.434296,251.281448 431.278595,257.141907 409.526733,264.682739 
	C402.240723,267.208588 394.966919,269.854279 387.510620,273.716095 
	C414.476349,289.795441 427.911865,315.202087 438.913055,342.113586 
	C441.225067,341.517334 442.028046,340.164398 443.038483,339.096985 
	C451.857513,329.780792 460.468506,320.257599 469.537079,311.191833 
	C474.189026,306.541321 477.663025,301.579498 478.657562,294.160675 
M579.112671,249.636703 
	C560.036743,266.001282 541.130371,282.537567 523.158447,300.144165 
	C516.428406,306.737457 513.214844,312.574371 516.911926,322.635162 
	C522.251221,337.164490 522.859070,352.820068 522.382385,369.131012 
	C524.275940,366.833466 525.688782,365.218994 526.993408,363.521423 
	C551.641357,331.449615 576.159180,299.276550 601.019226,267.370148 
	C605.657959,261.416534 608.065063,255.075699 608.772156,247.810547 
	C609.336243,242.015579 609.982178,236.227219 610.437744,230.423843 
	C610.586060,228.533890 611.116150,226.489059 609.318481,224.037567 
	C599.348206,232.470413 589.489136,240.809143 579.112671,249.636703 
M587.041199,326.303009 
	C601.580017,328.034485 616.188965,328.891052 630.781921,329.981995 
	C634.652771,330.271393 636.426697,329.121643 637.891296,325.666534 
	C648.139893,301.489960 662.772461,280.619873 684.153076,264.857208 
	C687.013245,262.748596 690.042236,260.631836 692.113464,257.631805 
	C691.183716,256.209869 689.958496,256.351593 688.826477,256.219330 
	C674.294434,254.521301 659.760254,252.840866 645.233765,251.096436 
	C641.893860,250.695374 638.453125,250.230194 638.596313,245.623001 
	C633.886780,244.486740 629.366577,243.846725 624.492004,243.925003 
	C624.068176,246.122131 623.498962,248.049515 623.352051,250.008575 
	C622.632080,259.608826 619.040588,267.954559 613.113342,275.515381 
	C602.538391,289.004730 592.131958,302.627686 581.786743,316.294464 
	C579.674072,319.085480 576.828247,321.520966 575.827332,325.619202 
	C579.547058,325.816986 582.844482,325.992310 587.041199,326.303009 
M617.874329,198.699265 
	C617.386658,199.093628 616.898987,199.487991 615.648254,200.499420 
	C622.500122,200.864166 624.100342,204.997849 624.739319,210.242371 
	C625.691528,218.057449 625.255188,225.870316 625.068237,233.676025 
	C624.984558,237.166962 625.936035,238.871124 629.614807,239.188614 
	C638.551025,239.959885 647.472717,240.923553 656.384766,241.944717 
	C672.331055,243.771866 688.265869,245.698425 704.357788,247.601425 
	C704.357788,247.063553 704.488464,246.401337 704.338928,245.809967 
	C699.208984,225.521744 690.958191,206.476913 681.345947,187.964249 
	C680.012756,185.396561 678.216248,185.632217 675.925720,186.145981 
	C666.190552,188.329636 656.397400,190.260269 646.684631,192.536026 
	C637.313904,194.731598 627.603149,195.239502 617.874329,198.699265 
M311.540833,511.163177 
	C296.748108,515.708740 281.835602,519.764771 266.573944,522.456665 
	C250.681107,525.259888 250.687775,525.298584 248.528717,541.555115 
	C248.484940,541.884949 248.476761,542.220215 248.420334,542.547485 
	C247.832336,545.958740 249.350800,547.058960 252.626068,546.656982 
	C259.221527,545.847412 265.837982,545.210815 272.440430,544.455750 
	C300.182800,541.283081 327.935547,538.194397 355.653076,534.817078 
	C360.702423,534.201904 366.068939,534.565247 371.652435,532.042053 
	C359.964203,522.274170 348.979523,513.126160 338.041382,503.922791 
	C336.161774,502.341248 334.447296,502.948639 332.487823,503.674591 
	C325.782654,506.158997 319.029297,508.513275 311.540833,511.163177 
M127.656235,384.813293 
	C134.375275,390.278534 141.200958,395.619995 147.759659,401.271271 
	C150.299652,403.459900 152.038193,403.075378 154.073166,400.919373 
	C157.648376,397.131409 160.311859,392.747223 162.931702,388.273987 
	C165.462509,383.952789 164.832916,381.338318 160.377060,378.605408 
	C118.206055,352.740875 76.149979,326.688904 34.075130,300.667755 
	C30.937195,298.727112 27.784645,298.421143 23.724081,299.874329 
	C58.522125,328.316010 92.812195,356.342499 127.656235,384.813293 
M242.816345,458.378448 
	C246.165421,448.097382 249.351318,437.763916 249.914185,426.873718 
	C250.204727,421.252167 249.490463,420.690796 243.997406,421.777283 
	C238.413696,422.881683 232.926453,424.214264 227.740234,420.362457 
	C225.479996,418.683838 222.927246,417.399994 220.512802,415.927917 
	C214.876801,412.491577 209.244110,409.049805 203.330261,405.439423 
	C198.909058,413.176208 194.486832,420.179504 189.206192,426.588806 
	C184.936203,431.771332 185.102814,431.561188 190.287140,436.060516 
	C205.411499,449.186310 222.392517,460.184204 235.922714,475.457367 
	C239.032700,470.526276 240.511490,464.703949 242.816345,458.378448 
M479.702911,470.203888 
	C477.000427,473.303497 473.401398,475.597443 471.060944,479.646423 
	C474.811218,483.358063 479.466675,485.654968 483.547394,488.688202 
	C489.660980,493.232513 491.466431,492.868439 495.753754,486.524200 
	C496.211853,485.846283 496.532288,485.059479 496.825897,484.288666 
	C499.841339,476.371552 505.165039,470.769653 513.244934,467.972168 
	C514.701233,467.467926 515.960999,466.743011 517.046570,465.675873 
	C523.336060,459.492676 529.707336,453.389954 535.890686,447.102417 
	C541.087341,441.818146 546.065247,436.318787 551.158630,430.894745 
	C547.195740,427.349823 543.818176,427.219421 539.509583,429.622864 
	C526.286499,436.998749 512.813660,443.927521 499.423737,451.003052 
	C497.646942,451.941956 496.006104,452.963440 494.608093,454.474640 
	C489.863251,459.603485 485.012360,464.634216 479.702911,470.203888 
M333.483459,583.067139 
	C334.320953,578.665588 337.216949,574.643188 336.370239,569.407410 
	C318.572601,571.392151 301.081329,570.776794 283.040619,572.460571 
	C287.498077,581.521851 290.681732,589.871338 293.829315,598.252930 
	C295.517517,602.748413 293.541290,609.467407 299.526001,611.433899 
	C304.579071,613.094299 310.035736,611.101379 315.283691,610.357605 
	C315.609100,610.311523 315.916443,610.148804 316.240875,610.083313 
	C322.068237,608.905273 326.114349,605.902710 327.816010,599.861328 
	C329.343506,594.438354 331.393036,589.162537 333.483459,583.067139 
M492.746735,348.504059 
	C492.753265,346.338501 493.156403,344.083313 492.691162,342.024353 
	C491.356354,336.117004 493.224884,331.899750 498.235291,328.548462 
	C500.180878,327.247131 502.366150,325.149994 501.606567,322.303833 
	C499.723633,315.248840 497.035522,308.509064 492.647797,301.768127 
	C490.279388,306.848175 489.327698,311.711853 485.655762,315.457764 
	C474.581879,326.754730 463.852081,338.388885 452.985779,349.889343 
	C450.891235,352.106110 448.692169,354.242065 446.675354,357.872772 
	C457.618500,352.385773 468.062744,349.520050 477.386871,357.930237 
	C488.147980,367.636475 484.882965,379.351471 479.743835,390.932922 
	C489.094879,389.246552 489.262085,389.151398 490.474518,380.831055 
	C491.988647,370.440063 492.487762,359.967834 492.746735,348.504059 
M302.737823,773.596680 
	C302.688171,772.599609 302.820404,771.551880 302.559479,770.613586 
	C300.806824,764.310730 301.826141,758.842346 306.866058,754.284180 
	C308.329620,752.960510 309.535767,751.019287 309.323578,748.974182 
	C308.380615,739.885010 306.161163,731.121399 302.475769,722.768250 
	C296.053680,724.934204 294.472778,729.341858 294.178558,735.231812 
	C293.158478,755.653137 291.686554,776.051453 290.474548,796.463806 
	C289.888519,806.333862 288.681549,816.190918 289.223297,826.561829 
	C295.090637,824.139587 299.640228,820.529602 304.469482,817.366577 
	C306.881683,815.786621 307.575684,814.035400 307.187042,811.129150 
	C305.557831,798.945679 304.216370,786.723694 302.737823,773.596680 
M519.925598,266.447266 
	C512.723633,272.260315 505.521637,278.073364 498.070770,284.087280 
	C500.972809,288.032379 503.596466,291.599091 506.598053,295.679504 
	C538.178955,263.376587 572.970764,235.327942 607.895874,205.558197 
	C595.358032,210.828232 543.327087,247.033081 519.925598,266.447266 
M402.763550,550.688965 
	C402.671539,547.445496 402.959564,544.128296 401.044189,540.719849 
	C389.356079,549.270142 378.764801,558.646790 366.323975,565.831299 
	C370.755646,573.799316 375.003235,581.490051 379.311584,589.146667 
	C380.458221,591.184326 382.353271,590.866333 384.179718,590.317871 
	C389.154053,588.824158 393.834320,586.718506 398.184662,583.833618 
	C401.358856,581.728577 403.006317,579.097046 402.901245,575.134399 
	C402.693726,567.307800 402.795441,559.472900 402.763550,550.688965 
M472.205444,361.060120 
	C463.908966,357.206940 453.247406,358.946075 446.598419,365.053009 
	C444.644653,366.847504 444.271515,368.905334 444.383331,371.333984 
	C444.643127,376.977234 444.855408,382.623505 445.006165,388.270721 
	C445.179596,394.769653 451.187653,399.341705 457.617218,398.223083 
	C468.978088,396.246490 475.359619,389.447632 477.986755,378.482697 
	C479.610413,371.705933 478.353882,365.990845 472.205444,361.060120 
M364.493958,549.063965 
	C368.850311,546.202026 373.461609,543.662598 377.121246,539.489746 
	C372.867645,538.593506 260.979828,551.081116 257.142548,552.867432 
	C261.745087,556.493042 267.069305,556.674561 272.295868,556.823242 
	C299.285614,557.590942 326.125214,555.248535 352.941132,552.632141 
	C356.713287,552.264038 360.557312,551.675476 364.493958,549.063965 
M384.338562,372.580231 
	C389.849213,366.009155 390.105377,367.312836 383.966858,360.667847 
	C382.949249,359.566315 381.934418,358.459259 380.864929,357.409027 
	C366.422241,343.226227 351.436768,329.720795 332.334198,321.994751 
	C318.489685,316.395264 309.833038,319.942596 302.758514,333.790680 
	C306.097839,332.181946 309.025848,330.389740 312.462524,329.681122 
	C321.088135,327.902466 329.031158,330.094604 336.611816,333.819275 
	C353.729797,342.230011 366.895508,355.368683 379.014984,369.735413 
	C380.246338,371.195099 380.820953,374.035156 384.338562,372.580231 
M538.820312,570.573364 
	C540.657959,570.118958 542.063721,568.945923 543.514099,567.817749 
	C554.678528,559.133362 565.696106,550.246765 577.112183,541.905945 
	C581.617493,538.614197 581.359070,535.210022 579.767090,530.337769 
	C570.085083,538.226746 560.678833,545.608154 551.598389,553.370605 
	C542.778748,560.910156 533.611877,567.000000 521.746216,569.329041 
	C493.165314,574.939148 464.515320,579.802307 435.458191,582.065979 
	C434.049042,582.175781 432.363464,581.716736 431.581787,583.674683 
	C432.371735,586.358215 434.721130,585.600525 436.524048,585.674500 
	C446.879761,586.099670 457.156647,584.651917 467.352325,583.384155 
	C491.120636,580.428955 514.455444,574.829529 538.820312,570.573364 
M526.037659,485.518829 
	C524.700439,484.845886 523.383789,484.127960 522.022339,483.508240 
	C517.555359,481.474945 515.471985,482.324158 513.126709,487.092163 
	C513.917542,488.497833 515.370728,489.001068 516.708679,489.629822 
	C536.875366,499.106781 556.977234,508.727081 577.265869,517.935608 
	C582.907288,520.496094 586.995789,523.331116 586.525574,530.236816 
	C586.396423,532.134216 587.172119,534.093262 587.506348,535.883606 
	C589.903687,536.734924 591.778870,535.765564 593.697876,535.436584 
	C597.603210,534.766968 600.384094,533.239746 600.726624,528.541016 
	C601.059875,523.970642 600.445862,520.899536 595.631592,518.664856 
	C572.554626,507.952820 549.662964,496.841583 526.037659,485.518829 
M328.217194,470.767212 
	C318.013519,476.708740 316.575043,487.866302 310.986267,497.621246 
	C335.044983,493.500702 347.151245,484.833527 348.833954,456.991547 
	C342.026825,461.534790 335.418304,465.945465 328.217194,470.767212 
M301.308899,667.653564 
	C300.057373,676.900146 297.939697,685.928589 294.341583,694.593567 
	C305.876068,668.932861 315.249146,642.581604 321.676086,614.095520 
	C314.289703,616.598511 307.645233,617.468628 300.345154,617.419800 
	C304.933655,634.356689 303.469574,650.561890 301.308899,667.653564 
M451.839874,476.012146 
	C459.736603,468.368591 467.229797,460.240143 475.653717,453.230133 
	C482.794922,447.287537 482.040497,440.144897 481.544708,432.515808 
	C480.920532,432.548523 480.505554,432.439514 480.307556,432.599335 
	C470.851257,440.233215 461.412231,447.888428 451.976501,455.547729 
	C451.048645,456.300903 450.359283,457.201508 450.231720,458.460938 
	C449.677917,463.927917 449.041016,469.388641 449.247192,474.901520 
	C449.300201,476.318573 449.646576,477.269989 451.839874,476.012146 
M474.806183,508.618744 
	C475.893738,507.057068 474.931122,506.114227 473.723969,505.379547 
	C468.177612,502.004120 462.607391,498.667725 457.037689,495.330811 
	C455.824005,494.603638 454.548981,494.239655 453.360413,495.348938 
	C449.133759,499.293579 444.302979,502.619507 440.380096,507.803772 
	C446.217834,512.223511 451.963989,516.415894 457.518951,520.847961 
	C460.195740,522.983582 462.139160,522.689575 464.296722,520.204834 
	C467.570770,516.434326 471.022705,512.818298 474.806183,508.618744 
M506.058136,377.713715 
	C509.245209,362.348816 507.909210,347.236786 504.293640,332.015320 
	C499.772125,333.980591 498.992676,336.948883 499.111969,340.850922 
	C499.386353,349.827393 499.254486,358.796722 498.520233,367.787140 
	C498.057892,373.447998 496.406067,379.174408 497.561096,384.970154 
	C504.829193,384.289276 505.163757,384.017120 506.058136,377.713715 
M234.000458,510.378632 
	C231.545044,510.710022 232.596542,511.561066 233.764801,512.269531 
	C241.099426,516.717468 248.945541,518.795288 257.570068,517.511169 
	C267.537048,516.027283 277.359894,513.964783 287.530090,511.063263 
	C284.633698,507.164154 282.171661,505.000580 277.273560,506.043976 
	C263.266510,509.027802 248.955109,509.565704 234.000458,510.378632 
M163.454163,410.623718 
	C161.601349,414.553406 165.349472,415.372131 167.227005,416.997467 
	C169.097473,418.616730 170.579605,416.880035 171.853302,415.573456 
	C175.938751,411.382355 179.123825,406.520020 182.032715,401.486603 
	C186.136658,394.385376 185.663254,393.279938 177.203690,389.977356 
	C173.570679,397.160309 169.249756,403.997253 163.454163,410.623718 
M478.316223,491.225342 
	C476.086700,489.773987 473.867920,488.305847 471.625610,486.874512 
	C465.660828,483.067047 463.172028,483.842224 459.569733,490.792236 
	C463.802094,494.800781 469.330383,496.915649 474.125580,500.131866 
	C480.065796,504.115997 482.157074,503.292999 485.196686,496.296539 
	C483.633362,494.080078 481.073975,493.104492 478.316223,491.225342 
M507.147919,423.869934 
	C502.063660,424.553345 496.974243,425.201172 491.898193,425.940979 
	C490.284241,426.176208 488.343231,426.343964 488.247833,428.562927 
	C488.101898,431.959747 487.454254,435.413055 488.870605,439.554840 
	C499.974243,433.659088 510.730652,427.947754 521.487061,422.236389 
	C521.388611,422.029205 521.290222,421.822021 521.191833,421.614868 
	C516.795532,422.293304 512.399292,422.971771 507.147919,423.869934 
M295.332458,491.000427 
	C295.064850,483.095062 301.228210,479.080811 306.943390,473.439850 
	C295.403076,478.290283 287.977234,484.629364 286.130920,496.556244 
	C285.344330,501.637451 286.582825,503.909088 291.287018,505.603973 
	C293.907318,501.238281 293.940399,496.350159 295.332458,491.000427 
M310.275726,789.060913 
	C310.275726,790.282104 310.275726,791.503235 310.275726,792.724426 
	C310.700378,788.987915 315.891418,787.666931 315.359741,784.318359 
	C314.107178,776.428894 312.043182,768.668213 310.100891,759.925598 
	C308.670013,761.460999 307.654968,762.046997 307.665070,762.614746 
	C307.817902,771.227661 309.249268,779.720398 310.275726,789.060913 
M438.668671,537.014221 
	C432.976837,535.022766 432.976837,535.022766 431.156128,539.095032 
	C439.123718,544.035339 442.834381,545.804626 444.820465,539.455688 
	C443.016785,538.727051 441.189880,537.988953 438.668671,537.014221 
M426.082367,533.802368 
	C429.420898,530.515320 428.802948,527.512878 423.387726,521.779114 
	C422.013855,523.067810 419.844604,523.884521 421.050659,526.434998 
	C422.290344,529.056641 422.790466,532.158264 426.082367,533.802368 
M441.440338,516.102234 
	C439.359924,514.971741 437.755310,512.937439 434.815430,512.293884 
	C437.824646,516.717651 452.475128,526.799011 456.698181,527.046326 
	C451.400299,523.229492 446.719238,519.857117 441.440338,516.102234 
z"/>
</svg>