<?xml version="1.0" encoding="UTF-8"?>
<svg version="1.1" viewBox="0 0 1131 1600" width="1280" height="1280" xmlns="http://www.w3.org/2000/svg">
<path transform="translate(0)" d="m0 0h1131v1600h-1131z" fill="none" stroke="none" />
<path transform="translate(1058,265)" d="m0 0h10l8 5v2h2l8 13 11 23 7 15 10 27 6 18 4 19v9l-3 5-11 7-14 11-17 14-14 12h-2v2l-8 7-1 2h-2l-2 4-6 7-10 15-10 18-9 19-7 17-9 29-4 17-4 26-1 10v33l3 19 5 18 5 28 1 12v27l-3 14-5 10h-2v2l-5 5h-2v2h-2v2h-2v2h-2v2l-3 3h-2v2h-2v2h-2l-2 4-3 1v2h-2v2h-2l-2 5-2 26-3 7-6 4-32 8-14 11-13 10-17 13-15 12-6 4-29 6-81 15-13 3-8 20-12 25-8 14-10 15-9 10-16 7-20 11-14 7-10 6-16 8-18 11-6 10-7 16-8 25-7 29-5 30-2 18-1 15-3 11-7 11-3 4h-2v2l-13 10-9 4-7 1 1 17-2 5-5 6-14 11-11 8-14 8-15 8-10 2-7-3-3-4-2-8v-12l5-77 4-65 2-21 4-5 4-2h3l-6-7-5-19-1-6v-12l6-18 5-24 2-20v-30l-3-13-1-9v-4l-5-5-11-33-8-17-8-12-9-8-2-3-13-5-12-7-12-11-2-5 1-14 2-15-6-2-11-6-18-12-9-8-2-3v-8l8-10 4-8 2-6 1-15-2-7-4-3v-2l-4-2-10-8-11-9-13-11-13-10-13-11-10-8-13-11-11-8v-2l-4-2-10-8-13-11-14-11-13-11-14-11-13-11-10-8-11-9-16-13-33-27-16-13-33-27-16-13-10-9-6-7v-19l5-2h49l26 16 17 11 11 6 14 9 42 26 18 11 13 8 19 12 36 22 13 8 19 12 20 12 19 12 23 14 16 10 4 2 7-10 10-13 12-14 1-2h2l2-4 13-15 14-15 12-12 6-24 8-15 9-12 7-9h2l2-4 5-5h2v-2l11-9 8-7 18-13 22-14 10-6 12-6 17-9 20-9 22-9 29-10 27-8 24-6 36-6 19-2h12l6 3 3 7 1 7v34l9-7 11-9 14-11 16-12 13-10 14-10h2v-2l12-8 20-14 15-10 17-11 13-8 25-15 13-4 47-9 31-7z" fill="#060606"/>
<path transform="translate(588,431)" d="m0 0 9 1 14 7 13 10v2l4 2 3 3v2h2l11 14 8 11 9 15 8 16 8 19 2 6v5h-2v2h-2l-1 3-1 29v17l1 31 3 5 10 4 1 3-36 10-22 6-4 5h-2l-2 4-22 26-16 5h-7l-27-7h-7l-19 11-23 15-12 8-7-1-25-9h-5l-2 3-1 8 6 2 15 7v2l-20 13-3 3-10 30-4 2-31 4-29 2h-24l-1-2 5-11 3-12 1-15 2-2 3 7h10l2-6 6-13 11-33 5-22 1-5v-20l-3-4-9 1-7 1 1-4 14-20 12-16 11-13 18-20 4-5h2l2-4 10-8 5-5 12-9 14-9 13-7 8-1 13 4 15 8 16 12 5 4v2l4 2 18 18 9 11 4 7-10 12-5 7h-2l-2 4-13 17-11 13-3 6h3l2-4 13-15 11-13 12-14 9-11 12-14 10-13v-6l-5-5v-2h-2l-7-8-16-16-11-9-14-11-15-10-12-7-18-7-16-3 5-6 16-12 21-14 20-12 16-8z" fill="#FBFBFB"/>
<path transform="translate(637,832)" d="m0 0 3 4 9 17 5 4 18 8 2 3-8 8-7 8-7 9-1 4 1 22 1 13 22 3h19l12-1 1 3-8 19-10 19-10 16-6 8-16 8-26 14-18 10-12 6-22 12-7 7-7 12-10 25-7 22-9 40-4 28-2 28-6 9-8 8-6 4h-2l-2-6-5-25-9-33-11-32-9-22-10-21 3-9 11-26 7-18 13-40 7-26 3-17 8-15 9-25 8-30 2-2 15-2h11l7 10 10 17 10 20 11-1 10-3 15-8 9-8 2-6v-40l-2-30z" fill="#FBFBFB"/>
<path transform="translate(891,514)" d="m0 0 27 3 61 5 10 1 1 4-8 24-7 28-4 26-1 9v41l1 11h-8l-86-17-20-4-10-1-7 2-52 8-23 4-3 1h-21l-49-3-24-1-7-1-1-2 21-6 21-5 4 1h11l40-12 25-8 26-8 6-3 7-7 9-12 40-52 13-17 6-8z" fill="#FAFAFA"/>
<path transform="translate(633,659)" d="m0 0 36 1 61 3 18 1v2l-13 10-17 14-16 13-5 4-1 4-3 39-1 7-4 2v2l-8 7-10 9-8 7-28 24-13 11-10 7-15 6-6-4-15-13-11-9-14-12-11-9-8-6 1-4 9-14 7 1 30 12 14 5 5-2 1-2v-9l-10-3-36-15-1-2 13-20 11-17 5-8 16-6 9-3 9-11 11-13 4-6h2v-2z" fill="#FAFAFA"/>
<path transform="translate(883,656)" d="m0 0 14 2 32 6 28 6 15 3 3 9 5 19 3 19 1 11v21l-2 10-7 9-35 35-16-7-73-35-26-12-7-4v-2l13-13 9-11 11-12 7-8 6-7h2v-2h2l2-4 10-11 6-9v-6l-3-5z" fill="#FBFBFB"/>
<path transform="translate(794,766)" d="m0 0 20 9 16 8 26 12 16 8 28 13 3 2-2 4-28 22-12 10-14 11-10 9-10 4-23 5-39 7-26 4-32 4-26 2h-6l-2-2 10-10 7-8 8-8 7-8 7-7 14-16h2l2-4 12-12 7-8 7-7 1-2h2l2-4 11-11 14-16h2l2-5z" fill="#FAFAFA"/>
<path transform="translate(1060,286)" d="m0 0 4 2 9 17 9 20 11 27 9 29v7l-4 1v-2l-4-1-29-3-52-6-34-3-5-1v-43l-1-9-3-5-2-1h-9l-9 7-11 9-12 10h-2v2l-10 8-14 12-11 9-10 9-11 9-4 4h-2v2l-11 9-14 13-8 7-15 14-8 8h-2v2h-2v2h-2v2h-2l-2 4-5 5-4-2-7-10-6-8 20-16 11-9 15-12 13-10 19-14 18-13 23-16 27-18 25-16 19-11 3-2 29-5 24-5 28-6z" fill="#FAFAFA"/>
<path transform="translate(974,377)" d="m0 0 24 3 51 6 38 4 7 2v2h-12l-31-4-50-6-1 3 9 2 43 5 33 4-1 4-11 9-15 13-10 9-8 7h-2l-2 4-14 19-9 15-7 12-8 18-4 8-21-1-52-4-25-2 1-4 12-16 12-15 9-12 13-17 14-18 7-11 4-8 3-14 2-15z" fill="#FAFAFA"/>
<path transform="translate(744,385)" d="m0 0h10v32l-4 36-4 17-3 6-11 12-10 10-1 2h-2l-2 4-13 13-7 8-11 11h-2l-10-24-8-16-8-14-11-16-12-14-9-9-15-11-10-5v-2l27-11 36-12 29-8 36-7z" fill="#FAFAFA"/>
<path transform="translate(953,345)" d="m0 0 2 1v11l-2 25-2 14-4 12-11 14-14 18-12 16-11 14-10 13-12 16-28 36-30 39-5 5-1-36-4-27-5-19-3-9v-5l7-9h2l2-4 18-18 8-7 7-7 8-7 4-2v-2l8-7 14-12 11-10 11-9 15-13 26-22z" fill="#F9F9F9"/>
<path transform="translate(522,782)" d="m0 0 5 1 6 5v2l4 2 13 11 17 14 11 9 5 4-1 3-52 6-91 10-42 5h-12l1-12 4-24 7-2 29-5 29-7 23-6 27-9z" fill="#F9F9F9"/>
<path transform="translate(31,464)" d="m0 0h17l20 12 13 8 19 12 18 11 26 16 24 15 18 11 26 16 24 15 18 11 5 4-3 9-9 15-4 5h-2l-2 4-3 2-5-1-13-11-10-8-11-9-13-10v-2l-4-2-14-11-4-3v-2l-4-2-10-8-11-9-13-10v-2l-4-2-7-5v-2l-4-2-10-8-22-18-13-10v-2l-4-2-10-8-11-9-8-7z" fill="#F7F7F7"/>
<path transform="translate(316,630)" d="m0 0 11 6 24 15 12 6h8l19-3 1 1v16l-4 21-7 24-10 25-3 5h-2l-3-8-9-10-14-11-17-14-33-27-3-4 9-10 14-20 6-11z" fill="#F9F9F9"/>
<path transform="translate(848,665)" d="m0 0 7 1 8 4-3 5-7 7-1 2h-2l-2 4-36 36h-2l-2 4-5 3-9 4-8 6-6 8-4 11-5 4-1 2h-2l-2 4-4-1-22-15-7-5 1-4 3-1v-2l8-7 16-16 1-2h2v-2h2l2-4 6-7 29-15 19-10 14-8z" fill="#F7F7F7"/>
<path transform="translate(768,467)" d="m0 0 4 4 8 16 6 18-7 8-8 7-1 3 1 7v18l-1 22-3 28-1 7-4 3-16 4 1-4 5-11 2-9v-11l-4-11-5-7-8-5-7-2h-13l-10 3-11 6-3 1 1-5 7-8 9-9 1-2h2v-2h2l2-4 15-15 7-8 11-11 1-2h2l2-4 6-7 4-10 2-7z" fill="#F5F5F5"/>
<path transform="translate(516,887)" d="m0 0h11l-1 9-9 29-8 20-6 5-11 4-12 2h-14l-5-2-3-13-5-17-9-22-5-9v-2l12-1 34-1z" fill="#F8F8F8"/>
<path transform="translate(471,1125)" d="m0 0 3 3 6 18 3 14v14l-8 10-2 2v14l4 37 4 30v6l-14 10-15 9-3 1v-19l4-60 4-64 1-15 4-4z" fill="#F4F4F4"/>
<path transform="translate(963,308)" d="m0 0 2 1-2 2 7 3-2 1h-9l-9 7-11 9-12 10h-2v2l-10 8-14 12-11 9-10 9-11 9-4 4h-2v2l-11 9-14 13-8 7-15 14-8 8h-2v2h-2v2h-2v2h-2l-2 4-5 5-4-2-7-10-6-8 20-16 11-9 15-12 13-10 19-14 18-13 23-16 27-18 25-16z" fill="#F1F1F1"/>
<path transform="translate(588,838)" d="m0 0h8l-5 5-18 13-9 5-16 3-20 2-39 3-19 1h-53l-10-2-12-6v-2l15-2 80-9 51-6z" fill="#F3F3F3"/>
<path transform="translate(625,841)" d="m0 0h3l1 2 2 29v24l-2 10-8 7-16 8-6 2h-7l-12-22-9-15-2-5 10-5 10-7 12-9 18-14z" fill="#F7F7F7"/>
<path transform="translate(715,558)" d="m0 0h17l8 4 6 7 2 5v17l-5 12-6 9-5 5-16 5h-8l-14-5-1-1-1-44 4-5 11-6z" fill="#F8F8F8"/>
<path transform="translate(905,825)" d="m0 0h3l1 16-1 2-7 4-16 13-16 12-18 14-7 5-24 5-44 8-37 7-30 3-16 1h-19l-3-1v-7l5-1 28-2 45-6 30-5 25-5 27-6 9-4 17-14 13-10 13-11 10-8z" fill="#EDEDED"/>
<path transform="translate(494,496)" d="m0 0h13l15 5 16 8 15 10 13 10 3 2v2l4 2 12 11 4 3v2h2v2h2v2h2l7 8 6 6-1 5-8 10-2 1-5-5-9-11-3-3v-2h-2l-7-8-14-13-17-13-17-9-10-4-10-2h-14l-11 4-8 6-8 12 1-7 11-18 12-12z" fill="#F2F2F2"/>
<path transform="translate(806,751)" d="m0 0h7l17 8 16 8 22 10 16 8 22 10 34 17-1 21-8 3-12 3h-3l-1-2-2-18-1-4-27-13-22-10-16-8-22-10-15-7-12-6 2-5z" fill="#F2F2F2"/>
<path transform="translate(557,695)" d="m0 0 1 2-9 13-3 6-4 21-5 15-21 18-23 7-11 3-16 11h-4l5-5 14-9h2l2-6 16-32 42-28h2l2-4 9-11z" fill="#F7F7F7"/>
<path transform="translate(502,956)" d="m0 0h1l-1 10-11 39-11 32-11 29-9 22-3 2-1-1 1-8 5-12 5-22 3-21 1-13v-22l-2-17-3-12 3-1h9l14-2z" fill="#F2F2F2"/>
<path transform="translate(752,670)" d="m0 0 2 1-1 27-13 13-1 2h-2v2h-2v2h-2v2l-8 7-13 13-8 7-5 3 1-24 1-13 9-8 14-11 13-11 14-11z" fill="#F5F5F5"/>
<path transform="translate(709,769)" d="m0 0 5 2 14 8 16 10v4l-14 15-8 9-3 1-6-4v-2l-5-2-13-10-9-7v-4l9-8h2v-2l8-7z" fill="#F5F5F5"/>
<path transform="translate(786,514)" d="m0 0h2l2 5 4 27v30l-3 20-4 4-10 3h-3l1-17 1-8 1-19v-36z" fill="#F0F0F0"/>
<path transform="translate(436,786)" d="m0 0 5 1 4 3v2l4 2 2 4-9 3-24 5-26 4-7-1-13-4-12-6-3-2v-2l51-4 25-4z" fill="#EFEFEF"/>
<path transform="translate(275,605)" d="m0 0 5 2 9 6 1 3-7 14-10 14-3 4h-2l-1 3-3 2-5-1-9-8 2-4 11-14 8-13z" fill="#F0F0F0"/>
<path transform="translate(814,655)" d="m0 0h7v2l-12 6-19 10-20 11-9 4-1-1v-23l7-2 43-6z" fill="#ECECEC"/>
<path transform="translate(974,330)" d="m0 0h1v34l-1 9 20 1 26 3 74 8 4 2v2l3 1-4 2-4 4-13-1-16-2-2-2 15 1 17 2-1-2-68-8-27-3-21-3-1-3-3-1z" fill="#121212"/>
<path transform="translate(727,752)" d="m0 0 5 2 15 10 11 7 3 4-7 8h-2l-1 3-6-1-15-9-16-10 3-5z" fill="#F3F3F3"/>
<path transform="translate(495,724)" d="m0 0v3l-11 10-11 9-4 4h-2v2h-2l-5 25-3 14-2 2-11-9-1-5 8-26 10-7 22-14z" fill="#EBEBEB"/>
<path transform="translate(482,1184)" d="m0 0 3 1 6 24 3 18-3 3h-2l-2 7 1 19 1 10h-4l-4-44-3-23v-11z" fill="#EBEBEB"/>
<path transform="translate(489,520)" d="m0 0h16l15 5 19 11 3 2v2l5 2 9 7v2l4 2 24 24 9 11v3h-2l-8-10-15-16-9-9-11-9-17-12-16-8-13-4h-11l-10 3h-3l5-4z" fill="#B1B1B1"/>
<path transform="translate(679,796)" d="m0 0 5 3 17 12 14 10-1 4-4 1-18-13-16-11v-4z" fill="#DFDFDF"/>
<path transform="translate(991,380)" d="m0 0 17 1 23 3 56 6 7 2v2h-12l-79-10v-1l-12-2z" fill="#B3B3B3"/>
<path transform="translate(675,834)" d="m0 0 8 1 13 5v4l-5 6-6-1-14-6-2-4h2v-2z" fill="#E9E9E9"/>
<path transform="translate(661,811)" d="m0 0 4 4 6 11-1 5-7 5-4-7-5-11 5-5z" fill="#eee"/>
<path transform="translate(489,1176)" d="m0 0h2l5 16 6 24 1 13-3-1-5-25-6-21z" fill="#BDBDBD"/>
<path transform="translate(489,520)" d="m0 0h16l15 5 17 10 1 3-4-1-16-9-16-5h-11l-10 3h-3l5-4z" fill="#B7B7B7"/>
<path transform="translate(667,650)" d="m0 0 3 1-2 1 7 1 34 2 25 1 8 1h19l10-2h5l-4 2-10 2h-21l-49-3-24-1-7-1-1-2z" fill="#AFAFAF"/>
<path transform="translate(548,752)" d="m0 0 14 5 12 5 19 8 1 3-7-1-13-6-27-11z" fill="#B8B8B8"/>
<path transform="translate(566,627)" d="m0 0 3 1-22 26-2 3h-3l1-4 8-10 11-14z" fill="#1B1B1B"/>
<path transform="translate(1052,387)" d="m0 0 16 1 25 3 1 3h-12l-31-4z" fill="#C5C5C5"/>
<path transform="translate(482,1224)" d="m0 0 2 4 1 7 2-2 1 23 1 10h-4l-3-35z" fill="#B5B5B5"/>
<path transform="translate(466,1053)" d="m0 0h1l-1 10-2 7h2l1-2-1 5-6 15-3 2-1-1 1-8 5-12z" fill="#CECECE"/>
<path transform="translate(458,1092)" d="m0 0 2 1 8 18 2 5-4-1-6-5-2-11z" fill="#D0D0D0"/>
<path transform="translate(557,695)" d="m0 0 1 2-9 13-3 6-4 21-3 9-1-3 4-16 2-12 1-2-2-2h2l2-4 9-11z" fill="#B0B0B0"/>
<path transform="translate(454,715)" d="m0 0h5l13 6 8 4-1 2-6-1-15-6-4-2z" fill="#CACACA"/>
<path transform="translate(482,521)" d="m0 0 4 1-7 4 7-2-1 2-4 2h-3l-1 3h-2l-2 5-4 4-1-5 4-6h2v-2h2v-2z" fill="#2C2C2C"/>
<path transform="translate(489,520)" d="m0 0h16l5 2-1 2-7-1h-11l-10 3h-3l5-4z" fill="#B2B2B2"/>
<path transform="translate(1096,387)" d="m0 0h2v2l3 1-4 2-4 4-13-1-16-2-2-2 15 1 17 2-1-2-6-1v-1h10z" fill="#2C2C2C"/>
<path transform="translate(483,775)" d="m0 0 1 2 4 1-9 4-14 10-3-1 5-5 14-9h2z" fill="#B2B2B2"/>
<path transform="translate(658,651)" d="m0 0 4 1-1 1 7 1 37 2v1h-17l-22-1-10-1z" fill="#2C2C2C"/>
<path transform="translate(1067,442)" d="m0 0v3l-24 24 2-5 7-8h2l2-4 5-5h2v-2z" fill="#C7C7C7"/>
<path transform="translate(579,828)" d="m0 0 4 2-1 3-35 4h-7l3-2 14-1 23-3z" fill="#AFAFAF"/>
<path transform="translate(566,627)" d="m0 0 3 1-10 12-4-2 8-10z" fill="#181818"/>
<path transform="translate(576,765)" d="m0 0 8 1 10 5v2l-7-1-11-5z" fill="#C1C1C1"/>
<path transform="translate(963,308)" d="m0 0 2 1-2 2 7 3-2 1h-9l-7 4-1-4z" fill="#B9B9B9"/>
<path transform="translate(458,1077)" d="m0 0 1 2-2 5v5l3-1v5h-1v14l-2-3-2-14v-7z" fill="#2C2C2C"/>
<path transform="translate(356,793)" d="m0 0h30v1l-29 1v2l2 1-4-1z" fill="#2C2C2C"/>
<path transform="translate(448,564)" d="m0 0v3l-20 20v-3l9-9 1-2h2l2-4z" fill="#C7C7C7"/>
<path transform="translate(1074,391)" d="m0 0h19l1 3h-12l-8-2z" fill="#ccc"/>
<path transform="translate(495,724)" d="m0 0v3l-11 10-2-1-2-2z" fill="#B9B9B9"/>
<path transform="translate(489,1176)" d="m0 0h2l3 9v8l-2-1-3-10z" fill="#C4C4C4"/>
<path transform="translate(462,531)" d="m0 0 1 3 3-3-1 4-4 10h-2v-8z" fill="#2C2C2C"/>
<path transform="translate(494,1189)" d="m0 0 2 3 2 7-1 9h-1l-3-12z" fill="#B8B8B8"/>
<path transform="translate(564,759)" d="m0 0 5 1 10 4-3 2-10-3-3-3z" fill="#BABABA"/>
<path transform="translate(1070,389)" d="m0 0 17 1v1l-20 1-8-1v-1z" fill="#AFAFAF"/>
<path transform="translate(588,838)" d="m0 0h8l-5 5-2-1 1-1h-20v-1z" fill="#AFAFAF"/>
<path transform="translate(821,653)" d="m0 0h3l-1 4h-2v-2l-19 3-4-1 1-1z" fill="#2C2C2C"/>
<path transform="translate(470,721)" d="m0 0 9 3v3l-6-1-7-3z" fill="#B9B9B9"/>
<path transform="translate(727,752)" d="m0 0 3 1-5 4-8 8v2l-3-1 3-5z" fill="#C6C6C6"/>
<path transform="translate(538,536)" d="m0 0 4 2v2l5 2 3 3v2l-5-2-8-6z" fill="#B3B3B3"/>
<path transform="translate(557,638)" d="m0 0 1 3-5 6h-3l-2 1 2-4 4-5z" fill="#1D1D1D"/>
<path transform="translate(661,811)" d="m0 0 4 4 2 6-3-3-3-4-4 4v5l-3-4 2-4z" fill="#BABABA"/>
<path transform="translate(448,793)" d="m0 0 5 2-1 5-14 3-4-1 16-4z" fill="#2C2C2C"/>
<path transform="translate(710,704)" d="m0 0 2 1-8 8-2 10h-1v-11z" fill="#BCBCBC"/>
<path transform="translate(468,522)" d="m0 0 2 3-8 12 1-7z" fill="#B1B1B1"/>
<path transform="translate(410,858)" d="m0 0h7l-4 2-13 1-1 2-4-1v-2z" fill="#AFAFAF"/>
<path transform="translate(462,1078)" d="m0 0 1 2-4 9h-3l1-8 2 3z" fill="#AFAFAF"/>
<path transform="translate(472,783)" d="m0 0m-2 1 2 1v2l-7 5-3-1 5-5z" fill="#AFAFAF"/>
<path transform="translate(499,485)" d="m0 0 2 1-2 2 10 2v1h-12l-1-2z" fill="#2C2C2C"/>
</svg>


