<?xml version="1.0" encoding="UTF-8"?>
<svg version="1.1" viewBox="0 0 1131 1600" width="1280" height="1280" xmlns="http://www.w3.org/2000/svg">
<path transform="translate(0)" d="m0 0h1131v1600h-1131z" fill="#FDFDFD"/>
<path transform="translate(1058,265)" d="m0 0h10l8 5v2h2l9 15 11 23 13 31 7 21 5 19 1 7v8l-6 7-7 4-16 13-14 11-14 12-12 11-9 10-12 18-10 18-11 23-7 19-7 23-6 28-3 25v33l3 20 4 14 5 25 2 19v24l-2 13-4 10-21 21-1 2h-2v2h-2v2l-5 5h-2v2h-2v2h-2l-2 29-4 8-5 3-32 8-9 7-4 4-11 30-6 17-2 9-9 10-23 23-8 7-81 81-7 23-8 24-11 24-7 9-9 6-18 13-16 12-19 14-16 12-6 5h-2l-7 21-5 24-3 27-1 10v56l1 11-2 13-8 15-11 12-9 6-7 3 2 10v11l-8 11-17 17-14 11-12 9-8 4h-8l-6-4-3-7-2-13-7-87-5-65v-12l3-5 6-4-6-4-7-15-4-12v-15l3-16v-45l-3-21-4-14-4-9 1-8 1-1 2-10 8-7 10-5 5-7 7-22 8-35 3-5 13-5 7-3 11-3 6 1 3 2v2l12-2h11l5 5 4 5 6-1 8-4 3-2v-13l3-31 3-7 10-10h2v-2l12-9h2l-1-3-2-1-2-14v-25l7-9 7-7 7-8v-3l-20-9-5-6v16l1 15v31l-8 8h-2v2l-14 9-11 5-13 4h-12l-6-4-4-5-10-21-9-15-8-11h-5l-9 23-8 23-9 23-5 8-7 5-13 4-16 2-17-1-11-4-5-3-4-7-6-19-6-17-8-17-8-12-9-8-2-3-13-5-13-8-10-9-3-7 2-18v-10l-16-8-15-10-10-8-4-6v-7l9-11 5-13 1-7v-9l-3-7-14-12-10-8-16-13-33-27-16-13-22-18-16-13-22-18-16-13-11-9-16-13-33-27-16-13-22-18-16-13-44-36-8-9-2-3v-17l5-3h48l14 8 13 8 19 12 23 14 24 15 18 11 21 13 18 11 21 13 19 12 41 25 19 12 23 14 16 10 9 6 9 5 4 2 8-11 10-13 24-28 7-8 3-4h2l2-4 9-9h2v-2l6-5 2-8 3-14 8-16 9-13 9-10 1-2h2l2-4 3-1v-2h2v-2l11-9 8-7 18-13 22-14 24-13 16-8 15-7 21-9 23-8 24-8 30-8 36-7 15-2 13-1h11l6 3 3 8 1 7v24l-1 10 10-8 11-9 14-11 16-12 17-13 34-24 39-26 26-16 11-7 12-5 52-10 31-7z" fill="#040404"/>
<path transform="translate(588,431)" d="m0 0 10 1 13 7 11 8v2l4 2 7 7 9 11 11 15 11 19 9 20 4 10 2 6v5h-2v2h-2l-1 4-1 44 1 31 2 5 7 4 4 1 1 3-51 14-9 4-12 14-5 7h-2l-2 4-7 8-16 5h-8l-26-7h-7l-22 13-20 13-12 8-7-1-25-9h-5l-2 3-1 8 7 2 14 7-1 3-16 10-4 3h-2l-1 5-8 26-5 3-30 4-28 2h-26l-1-2 5-11 3-13 1-15 2-1 3 7h10l2-6 6-13 11-33 5-22 1-5v-20l-3-4-9 1-7 1 1-5 10-13 7-10 9-12 8-10 11-12 1-2h2l2-4 8-8 7-8 11-9 8-7 19-13 14-7 8-1 13 4 15 8 15 11 4 3v2l4 2 22 22 10 13 1 3-9 11-13 16-11 14-9 11-4 7h3l2-4 7-9h2l2-4 13-15 11-13 14-17 9-10 9-12-1-7-16-17-11-11-8-7-15-12-21-14-10-6-18-7-16-3 5-6 16-12 13-9 13-8 21-12 15-8z" fill="#FBFBFB"/>
<path transform="translate(872,895)" d="m0 0 1 3-7 19-7 8-84 84h-2l-2 4-3 1v2h-2v2h-2v2l-8 7-7 7-4 7-4 17-9 27-9 21-4 6-6 4-72 53-8 6-6 9-6 17-5 21-4 26-2 23v57l1 14-5 10-8 10-4 3-3-1-6-18-13-32-16-32-12-22-13-20-4-5 1-7 9-35 7-35 4-24 2-18 1-23 4-10 4-15 5-32 2-16 2-2 22-6 4 1 12 14 11 14 7 11 2 3 7-1 10-4 11-7 6-5h2v-2h2l2-4 3-8-2-19-6-34v-6l18-18 1-2h2l2-4 7-6 16-1 22-1 25-5 74-14 25-5 12-9z" fill="#FBFBFB"/>
<path transform="translate(891,514)" d="m0 0 27 3 62 5 9 1 2 2-5 13-7 24-6 29-3 23v40l1 12h-8l-20-4-27-5-24-5-32-6-11-2-21 4-51 8-15 3h-22l-49-3-24-1-7-2 2-2 40-10 4 1h10l21-6 32-10 39-12 6-3 10-11 12-16 14-18 16-21 10-13 13-17z" fill="#FAFAFA"/>
<path transform="translate(633,659)" d="m0 0h13l40 2 46 2 16 1v2l-10 8-4 3h-2v2l-13 10-17 14-5 5-1 4-3 40-2 6-3 3h-2v2l-11 9-5 5h-2v2l-11 9-11 10-11 9-14 12-10 7-15 6-6-4-14-12-13-11-14-11v-2l-4-2-14-11 1-4 9-14 7 1 40 16h8l2-4v-8l-10-3-36-15-1-2 13-20 11-17 5-8 10-4 15-5 9-11 6-8h2l2-4 5-7h2v-2z" fill="#FAFAFA"/>
<path transform="translate(883,656)" d="m0 0 10 1 26 5 53 11 6 18 4 21 2 18v22l-2 10-7 9-29 29-5 6-9-3-16-8-22-10-16-8-27-13-22-10-11-6 2-4 11-11 8-10 10-11 7-8 7-7 1-2h2v-2h2l2-4 10-11 6-9v-6l-3-5z" fill="#FAFAFA"/>
<path transform="translate(794,766)" d="m0 0 10 4 15 8 18 8 16 8 22 10 28 14-2 4-14 11-11 9-16 13-22 18-8 4-26 6-39 7-40 6-29 3-21 1-2-2 8-8 1-2h2l2-4 10-10 1-2h2l2-4 9-9 1-2h2l2-4 10-10 1-2h2l2-4 9-9 1-2h2l2-4 10-10 1-2h2l2-4 11-11 7-8 8-8 7-10z" fill="#FAFAFA"/>
<path transform="translate(1060,286)" d="m0 0 4 2 9 17 13 29 7 18 7 21 2 8v7l-4 1v-2l-4-1-30-3-52-6-19-2-18-1-1-1v-42l-1-10-3-5-2-1h-9l-9 7-11 9-14 12-10 8-14 12-11 9-11 10-11 9-3 3h-2v2l-11 9-14 13h-2v2l-8 7-12 11-24 24-4-2-8-11-5-7 10-8 14-11 13-11 26-20 16-12 17-12 18-13 27-18 19-12 13-8 17-10 3-2 28-5 45-9z" fill="#F9F9F9"/>
<path transform="translate(974,377)" d="m0 0 24 3 90 10 6 2v2l-3 1-66-8-16-2h-9v2l9 2 44 5 23 3 9 1-1 4-6 5h-2v2l-10 8-11 10-11 9-4 4h-2l-2 4-13 18-10 16-14 27-5 11-22-1-76-6 1-4 12-16 14-18 20-26 13-17 7-10 5-10 3-14 2-16z" fill="#F9F9F9"/>
<path transform="translate(743,385)" d="m0 0h11v33l-3 27-3 18-4 12-11 12-9 9-1 2h-2l-2 4-12 12-1 2h-2l-2 4-16 16h-2l-10-24-8-16-8-14-10-14-11-14-11-11-15-11-10-5v-2l27-11 38-13 35-9 36-6z" fill="#FAFAFA"/>
<path transform="translate(953,345)" d="m0 0h2v14l-2 24-3 17-4 9-10 13-13 17-14 18-12 16-14 18-60 78-8 10h-1l-1-35-3-22-5-22-4-12v-5l11-13 21-21h2v-2l8-7 14-13 8-7 14-12 11-10 11-9 15-13 26-22z" fill="#F9F9F9"/>
<path transform="translate(522,782)" d="m0 0 5 1 11 10 14 11 10 9 9 7 13 11-2 2-43 5-44 5-36 4-55 6-19 2v-8l5-30 36-6 18-4 15-4 25-7 26-9z" fill="#F8F8F8"/>
<path transform="translate(31,464)" d="m0 0h18l22 14 20 12 19 12 23 14 16 10 19 12 20 12 19 12 23 14 16 10 11 7 2 4-8 16-10 13-5 4-5-1-13-11-10-8-16-13-33-27-16-13-33-27-16-13-33-27-16-13-11-9z" fill="#F6F6F6"/>
<path transform="translate(315,630)" d="m0 0 5 2 17 10 16 10 10 5h8l19-3 2 4-2 20-5 22-9 27-7 17-4 2-3-8-6-7-11-9-13-11-10-8-11-9-16-13-8-6-1-3 12-14 11-16z" fill="#F8F8F8"/>
<path transform="translate(850,664)" d="m0 0 13 6-3 5-7 7-1 2h-2l-2 4-42 42-10 4-6 4-3 3h-2l-2 4-5 9-3 7-5 5h-2l-2 4-4-1-22-15-7-5 1-4 6-6h2v-2h2v-2l8-7 9-9 1-2h2l2-4 8-9 27-14 22-12z" fill="#F6F6F6"/>
<path transform="translate(767,467)" d="m0 0h3l6 11 7 16 3 11-7 8-8 7v30l-1 22-2 21-2 12-4 3-16 4 1-5 4-8 3-11v-11l-4-11-4-6-5-4-11-4h-12l-13 4-10 6h-2l1-5 7-8 7-7 1-2h2v-2h2l2-4 14-14 7-8 14-14 7-8 4-5 4-10z" fill="#F4F4F4"/>
<path transform="translate(515,887)" d="m0 0h12l-1 9-6 20-9 25-3 6-12 6-15 3h-15l-5-2-1-1-2-12-5-17-10-23-4-8v-2l7-1 38-1z" fill="#F7F7F7"/>
<path transform="translate(537,1265)" d="m0 0 3 1 9 17 6 16 1 5v9l-8 14 2 12 5 18 8 30 6 22-6 7-10 9h-2v2l-9 7h-3l-1-5-5-64-6-73v-17l6-5 1-2h2z" fill="#F4F4F4"/>
<path transform="translate(963,308)" d="m0 0 2 1-2 2 7 3-2 1h-9l-9 7-11 9-14 12-10 8-14 12-11 9-11 10-11 9-3 3h-2v2l-11 9-14 13h-2v2l-8 7-12 11-24 24-4-2-8-11-5-7 10-8 14-11 13-11 26-20 16-12 17-12 18-13 27-18 19-12 13-8z" fill="#F0F0F0"/>
<path transform="translate(593,837)" d="m0 0 3 2-13 10-14 9-8 4-19 3-51 4-19 1h-55l-10-2-12-6v-2l3-1 38-4 54-6 85-10z" fill="#F3F3F3"/>
<path transform="translate(626,840)" d="m0 0 3 3 2 28v26l-2 9-9 8-15 7-6 2h-7l-12-22-10-16-1-4 10-5 17-12 28-22z" fill="#F6F6F6"/>
<path transform="translate(714,558)" d="m0 0h18l8 4 6 7 2 5v17l-5 13-7 9-4 4-16 5h-9l-13-5-1-1-1-44 4-5 12-7z" fill="#F7F7F7"/>
<path transform="translate(905,825)" d="m0 0h3l1 17-9 6-14 11-18 14-14 11-10 7-24 5-44 8-36 7-30 3-16 1h-21l-2-1v-7l2-1 30-2 33-4 36-6 28-5 23-5 14-4 28-22 12-10h2v-2l13-10 9-8z" fill="#ECECEC"/>
<path transform="translate(494,496)" d="m0 0h13l13 4 16 8 16 10 14 11 14 12 7 7 2 1v2l4 2 5 5v2h2l7 8 2 4-11 13-3-1-11-14-4-4v-2h-2l-7-8-6-5v-2l-4-2-10-9-15-10-16-8-12-4-6-1h-12l-10 3-8 5-8 11-2 4 1-8 9-15 6-8 11-9z" fill="#F1F1F1"/>
<path transform="translate(806,751)" d="m0 0h8l16 8 19 9 16 8 22 10 16 8 23 11 14 7v10l-1 11-7 3-13 3-4-1-2-19-1-4-23-11-22-10-16-8-28-13-18-8-7-4 2-5z" fill="#F0F0F0"/>
<path transform="translate(557,695)" d="m0 0 1 2-11 17-2 8-5 22-4 9-7 6h-2v2l-11 9-34 10-17 12-3-1 5-5 14-9h2l2-6 16-32 42-28 9-10z" fill="#F4F4F4"/>
<path transform="translate(543,1094)" d="m0 0 3 1-3 28-4 27-8 41-9 36-2 6-2-1-1-7 3-11 2-18v-33l-2-20-4-20-6-16-1-3 19-4 13-5z" fill="#eee"/>
<path transform="translate(752,670)" d="m0 0h2v12l-1 16-7 8h-2v2h-2l-2 4-7 7-8 7-13 13h-2v2l-10 8h-1l1-27 1-10 11-10 14-11 16-13z" fill="#F3F3F3"/>
<path transform="translate(709,769)" d="m0 0 5 2 14 8 16 10v4l-14 15-8 9-3 1-32-24-2-4 4-2v-2l11-9 7-7z" fill="#F5F5F5"/>
<path transform="translate(786,514)" d="m0 0h2l2 5 3 19 1 7v32l-3 19-3 4-11 3h-3l1-18 1-8 1-20v-34z" fill="#EFEFEF"/>
<path transform="translate(436,786)" d="m0 0 5 1 10 8-1 4-26 6-31 5h-6l-5-2-8-2-14-7-3-2v-2l50-4 20-3z" fill="#eee"/>
<path transform="translate(275,605)" d="m0 0 5 2 10 6-1 5-6 12-10 14-8 9h-5l-10-9 2-4 8-10 9-14z" fill="#F0F0F0"/>
<path transform="translate(814,655)" d="m0 0h7v2l-12 6-19 10-28 15-2-1v-23l6-2 23-3z" fill="#eee"/>
<path transform="translate(972,319)" d="m0 0 2 2 1 10v42l18 1 71 8 30 3 4 2v2l3 1-8 6-14-1-3-2 18 1-1-2-24-3-38-4-48-6-9-1-1 7h-1v-9l1-2v-39z" fill="#0C0C0C"/>
<path transform="translate(727,752)" d="m0 0 5 2 17 11 10 7 2 3-10 11-3 1-28-17-6-4 2-4z" fill="#EFEFEF"/>
<path transform="translate(495,724)" d="m0 0v3l-11 10-11 9-4 4h-2v2h-2l-5 26-3 13-2 2-11-9-1-1 1-7 7-23 10-7 22-14z" fill="#EAEAEA"/>
<path transform="translate(646,850)" d="m0 0 5 5 22 11v3l-16 17-5 7-1 24-2-4-1-1-1-30-1-15z" fill="#EDEDED"/>
<path transform="translate(557,1322)" d="m0 0h3l9 22 6 17-2 4-3 4v10l5 20-1 5-2-1-5-19-5-21-9-33 2-5z" fill="#E7E7E7"/>
<path transform="translate(488,520)" d="m0 0h17l15 5 16 9 12 9 11 9 25 25 9 11v3h-2l-9-11-16-17-7-7-14-11-11-8-12-7-13-5-8-2h-9l-11 3-6 4 2-4 6-4z" fill="#B3B3B3"/>
<path transform="translate(992,380)" d="m0 0 17 1 22 3 57 6 6 2v2l-3 1-66-8-16-2h-9v2l2 2-4-1 1-5-7-2z" fill="#A9A9A9"/>
<path transform="translate(679,796)" d="m0 0 7 4 15 11 14 10-1 4-4 1-18-13-16-11v-4z" fill="#DEDEDE"/>
<path transform="translate(676,833)" d="m0 0 18 6 3 2-2 5-4 4-7-1-14-7-1-3h2v-2h2v-2z" fill="#E7E7E7"/>
<path transform="translate(521,1150)" d="m0 0h1l1 13v33l-2 18-3 11 1 7 2-5h1l1 10 9 13 3 5v2l-5-2-6-4-4-10-3-7-1-4v-7l2-5 2-11z" fill="#242424"/>
<path transform="translate(661,811)" d="m0 0 4 4 6 11-1 5-6 5-4-4-6-14 5-5z" fill="#EAEAEA"/>
<path transform="translate(563,1313)" d="m0 0 3 1 6 15 5 11 7 19v5l-3-1-11-30-7-15-1-4z" fill="#B8B8B8"/>
<path transform="translate(548,752)" d="m0 0 16 6 17 7 10 4 3 2v2l-7-1-23-10-17-7z" fill="#B2B2B2"/>
<path transform="translate(550,545)" d="m0 0 8 6 26 26 9 11v3h-2l-9-11-16-17-7-7-10-8z" fill="#ACACAC"/>
<path transform="translate(972,319)" d="m0 0 2 2 1 10v42l18 1 26 3v1h-10l-18-2-15-1v2l-2 1-1 7h-1v-9l1-2v-39z" fill="#242424"/>
<path transform="translate(566,627)" d="m0 0 3 1-11 13-2 3h-2l-2 4-7 9h-3l1-4 11-14 9-11z" fill="#171717"/>
<path transform="translate(520,1235)" d="m0 0h2l10 15 3 5v2l-5-2-6-4-4-12z" fill="#CDCDCD"/>
<path transform="translate(992,380)" d="m0 0 17 1 22 3v3l-22-2h-9v2l2 2-4-1 1-5-7-2z" fill="#A9A9A9"/>
<path transform="translate(568,1369)" d="m0 0h1l2 13 4 17-1 5-2-1-5-19-1-9z" fill="#B3B3B3"/>
<path transform="translate(454,715)" d="m0 0h5l13 6 8 4-1 2-6-1-18-7z" fill="#C5C5C5"/>
<path transform="translate(488,520)" d="m0 0h17l5 2-1 2-8-1h-9l-11 3-6 4 2-4 6-4z" fill="#ACACAC"/>
<path transform="translate(891,514)" d="m0 0 27 3 24 2v1h-13l-33-3h-5l-6 5 2-4z" fill="#AEAEAE"/>
<path transform="translate(483,775)" d="m0 0 1 2h5l-3 2-7 3-14 10-3-1 5-5 14-9h2z" fill="#AEAEAE"/>
<path transform="translate(648,884)" d="m0 0h1l1 9 1 1v23l-2-4-1-1z" fill="#A9A9A9"/>
<path transform="translate(658,651)" d="m0 0 4 1-1 1 6 1 37 2v1h-17l-25-1-6-1z" fill="#242424"/>
<path transform="translate(563,1313)" d="m0 0 3 1 6 15 1 4h-3l-7-15-1-4z" fill="#B1B1B1"/>
<path transform="translate(576,570)" d="m0 0 7 6 10 12v3h-2l-9-11-7-8z" fill="#ABABAB"/>
<path transform="translate(484,524)" d="m0 0 2 1-9 6h-2l-2 5-3 4h-2v-5l7-9h3l-1 2z" fill="#282828"/>
<path transform="translate(772,369)" d="m0 0 2 1 2 8 1 37-3 1v-34z" fill="#A9A9A9"/>
<path transform="translate(593,837)" d="m0 0 3 2-4 2h-14l-17 2h-10v-1z" fill="#A9A9A9"/>
<path transform="translate(1067,442)" d="m0 0v3l-20 20-1 2-2-1 9-11 10-10z" fill="#C3C3C3"/>
<path transform="translate(576,765)" d="m0 0 9 1 9 5v2l-7-1-11-5z" fill="#BCBCBC"/>
<path transform="translate(486,471)" d="m0 0 2 1-25 25v-3l6-7h2l2-4 3-1v-2h2v-2z" fill="#1A1A1A"/>
<path transform="translate(1032,385)" d="m0 0h10l10 2-1 2h-10l-10-2z" fill="#B6B6B6"/>
<path transform="translate(1096,387)" d="m0 0h2v2l3 1-8 6-14-1-3-2 18 1-1-2-5-1v-1l8-1z" fill="#242424"/>
<path transform="translate(963,308)" d="m0 0 2 1-2 2 7 3-2 1h-9l-4 3-4-2 5-4z" fill="#B7B7B7"/>
<path transform="translate(557,695)" d="m0 0 1 2-10 15h-3l-2-1 9-10z" fill="#aaa"/>
<path transform="translate(566,627)" d="m0 0 3 1-6 7-6 4-2-1 8-10z" fill="#121212"/>
<path transform="translate(495,724)" d="m0 0v3l-11 10-2-1-2-2z" fill="#B5B5B5"/>
<path transform="translate(461,531)" d="m0 0h2v3l3-3v4h-2l-1 5-2 5h-3l1-8z" fill="#242424"/>
<path transform="translate(644,848)" d="m0 0 4 1-1 2v27l-2-4z" fill="#242424"/>
<path transform="translate(356,793)" d="m0 0h28v1l-27 1v2l2 1-4-1z" fill="#242424"/>
<path transform="translate(347,785)" d="m0 0 2 1 23 1v1l-6 1h-18z" fill="#242424"/>
<path transform="translate(813,544)" d="m0 0h1l1 34 3-2-2 4h-4z" fill="#242424"/>
<path transform="translate(1052,387)" d="m0 0 17 1 1 2h-19z" fill="#BFBFBF"/>
<path transform="translate(564,759)" d="m0 0 5 1 10 4-3 2-5-1-8-4z" fill="#B4B4B4"/>
<path transform="translate(448,564)" d="m0 0v3l-15 15-2-1 14-15z" fill="#C6C6C6"/>
<path transform="translate(563,557)" d="m0 0 7 6 5 5 1 3-4-2-10-10z" fill="#AFAFAF"/>
<path transform="translate(510,522)" d="m0 0 10 3 3 2v2l-6-1-8-3z" fill="#B5B5B5"/>
<path transform="translate(469,520)" d="m0 0 2 3-2 4-5 7-2 4 1-8z" fill="#ABABAB"/>
<path transform="translate(1074,391)" d="m0 0h13l5 1-1 3-15-2z" fill="#D5D5D5"/>
<path transform="translate(470,721)" d="m0 0 9 3v3l-6-1-7-3z" fill="#B4B4B4"/>
<path transform="translate(523,527)" d="m0 0 10 5 3 3-4 1-10-6z" fill="#ABABAB"/>
<path transform="translate(580,1351)" d="m0 0 2 2 2 6v5l-3-1-1-2z" fill="#BEBEBE"/>
<path transform="translate(410,858)" d="m0 0h7v1l-17 2-1 2-4-1v-2l3-1z" fill="#A9A9A9"/>
<path transform="translate(572,1333)" d="m0 0h2l2 5v6h-2l-3-10z" fill="#BCBCBC"/>
<path transform="translate(499,720)" d="m0 0h3v3h-2v2l-5 4-2-1 2-4z" fill="#242424"/>
<path transform="translate(470,784)" d="m0 0 2 3-7 5-3-1 5-5z" fill="#A9A9A9"/>
<path transform="translate(563,1313)" d="m0 0 3 1 1 8h-2l-3-6z" fill="#bbb"/>
<path transform="translate(872,893)" d="m0 0 3 1-3 10-1-3 1-5-4 3h-2v-2z" fill="#242424"/>
<path transform="translate(912,863)" d="m0 0 2 1-8 8-2 5-1-4 3-5z" fill="#B8B8B8"/>
<path transform="translate(661,811)" d="m0 0 3 2-1 2h-3l-3 3v5l-3-4 2-4z" fill="#BFBFBF"/>
<path transform="translate(814,655)" d="m0 0h7v2l-6 3-2-1 1-1-5-1v-1z" fill="#A9A9A9"/>
<path transform="translate(549,649)" d="m0 0v3l-4 5h-3l1-4 3-3h2z" fill="#212121"/>
<path transform="translate(587,582)" d="m0 0 5 5 1 4h-2l-6-8z" fill="#ACACAC"/>
</svg>
